<svg width="72" height="48" viewBox="0 0 72 48" fill="none" xmlns="http://www.w3.org/2000/svg">
<g opacity="0.4">
<path opacity="0.4" d="M35.8954 38.6792C36.2629 38.6794 36.6264 38.6032 36.9628 38.4554C37.2993 38.3076 37.6013 38.0914 37.8496 37.8206L60.8237 14.3676C61.3296 13.8438 61.6073 13.1409 61.596 12.4127C61.6022 12.0572 61.5367 11.704 61.4035 11.3743C61.2702 11.0446 61.072 10.7451 60.8205 10.4937C60.5691 10.2422 60.2696 10.044 59.9399 9.91073C59.6102 9.7775 59.257 9.71201 58.9015 9.71817C58.1851 9.72037 57.4966 9.99587 56.9765 10.4884L35.8954 32.0463L14.8083 10.4884C14.2912 9.99106 13.6007 9.71476 12.8833 9.71817C12.5277 9.71201 12.1746 9.7775 11.8449 9.91073C11.5152 10.044 11.2157 10.2422 10.9642 10.4937C10.7128 10.7451 10.5145 11.0446 10.3813 11.3743C10.248 11.704 10.1826 12.0572 10.1887 12.4127C10.1814 12.7758 10.2486 13.1365 10.3861 13.4726C10.5236 13.8087 10.7285 14.1131 10.9882 14.3669L33.9378 37.8206C34.1885 38.0894 34.4914 38.3043 34.828 38.4519C35.1646 38.5995 35.5279 38.6769 35.8954 38.6792Z" fill="#777777"/>
</g>
</svg>
