<svg width="459" height="460" viewBox="0 0 459 460" fill="none" xmlns="http://www.w3.org/2000/svg">
<path d="M10.1446 221.212C10.1446 221.212 -3.45139 224.374 7.05457 253.822C17.5605 283.27 25.4606 298.205 25.4606 298.205C25.4606 298.205 27.1189 304.941 21.5981 305.229C16.0773 305.518 4.43838 302.077 1.1733 308.319C-2.21539 314.839 1.91489 321.946 11.257 328.919C20.599 335.892 40.5089 352.012 42.3011 353.515C44.0933 355.019 45.597 358.181 41.8582 358.985C38.1193 359.788 11.051 359.077 11.4836 371.952C11.9162 384.827 41.1475 399.999 44.3095 401.719C47.4716 403.439 48.0793 404.953 47.5746 406.746C47.0699 408.538 37.9751 407.446 30.2707 407.559C22.5663 407.673 13.6363 409.166 14.5118 416.572C15.3872 423.978 31.5891 441.405 75.158 451.499L95.6549 454.857L109.117 438.933C135.897 403.099 136.999 379.317 132.879 373.106C128.759 366.895 120.993 371.509 115.039 376.402C109.086 381.294 102.844 387.938 101.299 386.898C99.7543 385.857 99.2393 384.302 100.547 380.944C101.855 377.586 114.36 347.14 106.387 337.025C98.4153 326.911 78.1861 344.936 74.818 346.738C71.45 348.541 70.5333 345.069 70.9556 342.845C71.3779 340.62 76.2188 315.457 78.8453 304.096C81.4718 292.735 80.0401 284.64 73.2422 281.848C66.6914 279.15 60.0273 289.295 55.6189 292.643C51.2105 295.99 48.1411 289.769 48.1411 289.769C48.1411 289.769 44.5774 273.176 33.5667 243.965C22.556 214.754 9.87677 221.305 9.87677 221.305" fill="#EBEBEB"/>
<path d="M96.0875 459.791C88.0844 438.274 74.4576 399.804 62.6744 366.823C50.8913 333.843 40.1175 304.076 32.2277 282.446C28.2725 271.693 25.0692 262.989 22.8548 256.933C21.7527 253.946 20.8978 251.608 20.3107 250.001L19.6618 248.188C19.5176 247.776 19.4661 247.56 19.4661 247.56C19.4661 247.56 19.5588 247.766 19.7236 248.167C19.8884 248.569 20.1253 249.197 20.4343 249.949C21.042 251.556 21.9381 253.874 23.0814 256.85C25.3885 262.845 28.6536 271.538 32.65 282.291C40.6531 303.808 51.4578 333.616 63.2821 366.576C75.1065 399.536 88.62 438.047 96.5098 459.595" fill="#E0E0E0"/>
<path d="M17.2516 313.84C17.7313 313.986 18.194 314.183 18.6318 314.427C19.5073 314.839 20.7536 315.457 22.278 316.271C25.368 317.867 29.4879 320.185 34.0611 322.822L45.6898 329.609L49.2227 331.669C49.6796 331.884 50.1086 332.154 50.4999 332.473C50.0154 332.336 49.5486 332.142 49.1094 331.896C48.2339 331.474 46.9876 330.866 45.4632 330.032C42.3732 328.404 38.2532 326.035 33.7315 323.398L22.0617 316.693L18.5185 314.633C18.0674 314.418 17.6423 314.152 17.2516 313.84Z" fill="#E0E0E0"/>
<path d="M52.0757 331.319C51.9212 331.237 56.309 322.43 61.8916 311.656C67.4742 300.883 72.1195 292.21 72.274 292.292C72.4285 292.375 68.0407 301.181 62.4581 311.955C56.8755 322.729 52.2302 331.401 52.0757 331.319Z" fill="#E0E0E0"/>
<path d="M67.9583 382.767C68.249 382.336 68.5953 381.944 68.9883 381.603L71.862 378.586C74.2825 376.031 77.6197 372.498 81.132 368.461C84.6443 364.423 87.7549 360.674 89.9693 357.934L92.5855 354.69C92.8799 354.267 93.2259 353.883 93.6155 353.546C93.3851 354.005 93.1091 354.44 92.7915 354.844C92.2353 355.648 91.401 356.811 90.3298 358.212C88.2698 361.024 85.1799 364.845 81.6367 368.883C78.0935 372.921 74.6945 376.433 72.1916 378.905C70.9247 380.131 69.8947 381.119 69.1634 381.779C68.799 382.151 68.3949 382.483 67.9583 382.767Z" fill="#E0E0E0"/>
<path d="M32.9796 373.889C33.453 373.902 33.9231 373.972 34.3804 374.095L38.1502 374.898C41.3226 375.599 45.7001 376.608 50.5102 377.772C55.3202 378.936 59.6977 380.017 62.8701 380.862L66.5987 381.892C67.0618 381.988 67.5115 382.14 67.9377 382.345C67.4643 382.331 66.9942 382.262 66.5369 382.139L62.7568 381.325C59.5844 380.625 55.2069 379.605 50.3969 378.452C45.5868 377.298 41.2093 376.206 38.0369 375.362L34.3186 374.332C33.8575 374.233 33.4085 374.085 32.9796 373.889Z" fill="#E0E0E0"/>
<path d="M41.2195 421.083C41.8244 421.125 42.4243 421.222 43.0117 421.372L47.8527 422.402C51.9727 423.287 57.545 424.544 63.7456 425.965C69.9462 427.387 75.5493 428.705 79.5972 429.735L84.3867 430.94C84.9815 431.063 85.5641 431.239 86.1274 431.466C85.5231 431.425 84.9234 431.332 84.3352 431.187L79.4942 430.157C75.3742 429.282 69.802 428.025 63.6014 426.594C57.4008 425.162 51.7976 423.844 47.7497 422.855L42.9602 421.639C42.365 421.505 41.7826 421.319 41.2195 421.083Z" fill="#E0E0E0"/>
<path d="M85.118 430.868C85.4867 430.333 85.9002 429.83 86.354 429.364L89.856 425.409C92.8121 422.062 96.8805 417.427 101.186 412.184C105.491 406.941 109.354 402.1 112.083 398.578L115.328 394.406C115.701 393.872 116.122 393.372 116.584 392.913C116.288 393.487 115.943 394.034 115.554 394.55C114.844 395.58 113.793 397.053 112.464 398.856C109.817 402.45 106.048 407.353 101.691 412.596C97.3337 417.839 93.2138 422.443 90.165 425.708C88.6406 427.346 87.384 428.654 86.5085 429.529C86.0814 430.012 85.6165 430.46 85.118 430.868Z" fill="#E0E0E0"/>
<path d="M340.516 454.857C312.48 438.191 303.889 404.057 302.664 372.9C302.458 367.698 301.479 362.27 303.622 357.532C305.764 352.794 311.285 349.292 316.085 351.116C320.071 352.65 322.079 357.007 324.51 360.55C327.751 365.283 332.265 369.004 337.529 371.283C340.959 372.756 345.13 373.497 348.251 371.458C352.546 368.667 352.619 362.445 352.207 357.285C351.444 347.672 350.679 338.059 349.91 328.445C349.498 323.295 349.096 318.022 350.342 312.995C351.589 307.969 354.802 303.169 359.612 301.428C364.422 299.688 370.705 302.077 372.106 307.052C372.693 309.112 372.425 311.337 372.724 313.469C373.023 315.601 374.197 317.898 376.278 318.341C378.358 318.784 380.398 317.187 381.778 315.56C386.653 309.829 390.371 303.208 392.727 296.062C395.322 288.533 397.877 280.952 402.8 276.018C408.104 270.745 413.574 264.987 420.928 264.029C428.282 263.071 436.501 267.047 438.901 274.164C441.301 281.282 437.604 288.996 433.422 295.228C427.213 304.465 419.702 312.756 411.122 319.845C409.577 321.122 407.909 322.502 407.425 324.459C406.559 327.982 410.061 331.154 413.543 332.04C417.488 333.07 421.628 332.328 425.686 332.503C429.745 332.679 434.235 334.141 436.038 337.829C438.541 342.979 434.534 348.798 430.455 352.743C422.297 360.635 412.841 367.063 402.501 371.746C398.804 373.415 394.9 374.929 392.036 377.813C389.173 380.697 387.659 385.486 389.781 388.978C391.903 392.47 396.723 393.294 400.647 392.264C404.572 391.234 407.971 388.813 411.658 387.114C418.549 383.911 427.746 383.725 432.732 389.524C436.017 393.335 436.697 398.918 435.533 403.831C434.369 408.744 431.619 413.101 428.653 417.159C418.26 431.332 404.499 443.135 388.483 450.047C372.467 456.958 357.326 459.626 340.537 454.846" fill="#EBEBEB"/>
<path d="M347.108 434.782C350.527 418.766 355.739 401.513 361.806 383.653L366.338 370.449C367.842 366.123 369.325 361.827 371.045 357.718C374.348 349.828 378.089 342.129 382.251 334.656C386.165 327.498 390.151 320.844 393.911 314.654C397.67 308.463 401.327 302.767 404.86 297.71C410.392 289.704 416.554 282.15 423.286 275.122C425.666 272.63 427.571 270.765 428.879 269.519L430.383 268.098C430.545 267.929 430.725 267.777 430.919 267.645C430.776 267.833 430.618 268.009 430.445 268.17C430.095 268.541 429.621 269.035 429.013 269.653C427.757 270.951 425.923 272.856 423.554 275.38C416.95 282.491 410.887 290.086 405.416 298.102C401.924 303.169 398.33 308.875 394.591 315.076C390.852 321.277 386.907 327.941 383.014 335.089C378.893 342.544 375.183 350.218 371.9 358.078C370.2 362.198 368.738 366.432 367.234 370.768C365.73 375.104 364.237 379.513 362.702 383.972C356.635 401.812 351.372 418.992 347.963 434.978" fill="#E0E0E0"/>
<path d="M371.313 357.635C371.011 356.941 370.786 356.216 370.643 355.472C370.273 354.072 369.799 352.022 369.243 349.478C368.14 344.39 366.843 337.314 365.452 329.517C364.062 321.719 362.671 314.674 361.497 309.617C360.91 307.083 360.416 305.044 360.055 303.643C359.824 302.92 359.672 302.174 359.602 301.418C359.951 302.093 360.224 302.805 360.416 303.54C360.879 304.91 361.446 306.939 362.146 309.452C363.495 314.479 364.999 321.524 366.389 329.341C367.78 337.159 368.964 344.019 369.902 349.344C370.345 351.744 370.715 353.773 371.004 355.39C371.185 356.126 371.289 356.878 371.313 357.635Z" fill="#E0E0E0"/>
<path d="M436.749 340.383C435.89 340.632 435.011 340.804 434.122 340.898C432.433 341.176 430.002 341.557 426.974 342.134C420.938 343.236 412.667 345.049 403.624 347.449C394.581 349.849 386.505 352.403 380.707 354.412C377.802 355.39 375.474 356.255 373.857 356.832C373.037 357.185 372.185 357.461 371.313 357.656C372.079 357.192 372.886 356.799 373.723 356.482C375.299 355.792 377.596 354.834 380.48 353.773C386.238 351.6 394.323 348.942 403.387 346.563C411.119 344.473 418.954 342.785 426.861 341.506C429.889 341.011 432.361 340.723 434.071 340.568C434.956 340.426 435.852 340.364 436.749 340.383Z" fill="#E0E0E0"/>
<path d="M347.829 433.505C347.829 433.505 347.623 433.258 347.314 432.732L346.006 430.415C344.873 428.355 343.318 425.44 341.443 421.753C337.683 414.388 332.812 404.047 327.59 392.573C322.367 381.099 317.588 370.716 313.994 363.29L309.698 354.545L308.545 352.146C308.386 351.877 308.271 351.585 308.205 351.28C308.407 351.516 308.58 351.775 308.72 352.053L310.028 354.37C311.151 356.43 312.716 359.345 314.591 363.033C318.35 370.397 323.222 380.738 328.444 392.223C333.666 403.707 338.446 414.069 342.04 421.506L346.335 430.291L347.489 432.691C347.634 432.948 347.748 433.221 347.829 433.505Z" fill="#E0E0E0"/>
<path d="M433.906 398.609C433.642 398.791 433.354 398.937 433.051 399.041L430.558 400.071L421.34 403.831C413.563 407.003 402.862 411.504 391.048 416.489C379.233 421.475 368.491 425.893 360.642 428.911C356.718 430.415 353.525 431.599 351.31 432.372L348.746 433.258C348.452 433.377 348.144 433.457 347.829 433.495C348.095 433.319 348.382 433.177 348.684 433.072L351.176 432.042L360.395 428.293C368.171 425.121 378.873 420.62 390.687 415.624C402.501 410.629 413.244 406.22 421.093 403.213C425.017 401.709 428.21 400.524 430.424 399.742L432.989 398.866C433.283 398.744 433.591 398.657 433.906 398.609Z" fill="#E0E0E0"/>
<path d="M292.467 13.5341C292.257 10.6929 291.179 7.98493 289.377 5.7782C287.684 3.54923 285.335 1.90668 282.661 1.08142C280.377 0.438478 277.944 0.566304 275.739 1.44512C273.535 2.32394 271.682 3.90477 270.466 5.943C269.438 3.89761 267.787 2.23222 265.75 1.18787C263.713 0.143507 261.397 -0.225649 259.136 0.133824C256.386 0.643466 253.865 2.00135 251.926 4.01691C249.869 5.99742 248.467 8.56017 247.909 11.3608C247.26 14.9247 247.769 18.6027 249.361 21.8565C251.266 25.1853 253.94 28.0105 257.158 30.0964C262.36 33.6499 269.22 38.1304 269.22 38.1304C269.22 38.1304 275.482 34.0104 281.054 31.0646C284.486 29.3858 287.47 26.9144 289.758 23.8546C291.746 20.7948 292.696 17.1759 292.467 13.5341Z" fill="#C447FF"/>
<path d="M242.924 38.8411C242.49 36.9714 241.49 35.2809 240.06 34.0001C238.715 32.6935 236.993 31.8431 235.137 31.5693C233.556 31.3667 231.953 31.6934 230.578 32.4985C229.203 33.3035 228.133 34.5415 227.536 36.0189C226.916 35.1436 226.11 34.4157 225.177 33.8868C224.307 33.4105 223.349 33.1141 222.362 33.015C221.375 32.9159 220.377 33.0162 219.43 33.31C217.656 33.9234 216.118 35.0757 215.032 36.606C213.871 38.1277 213.202 39.9676 213.116 41.8796C213.047 44.3218 213.77 46.7208 215.176 48.7188C216.777 50.7281 218.836 52.3245 221.181 53.3744C224.981 55.2181 229.987 57.4943 229.987 57.4943C229.987 57.4943 233.726 54.1263 237.125 51.6131C239.239 50.1542 240.97 48.2075 242.172 45.9378C243.174 43.7132 243.438 41.2263 242.924 38.8411Z" fill="#C447FF"/>
<path opacity="0.5" d="M292.467 13.5341C292.257 10.6929 291.179 7.98493 289.377 5.7782C287.684 3.54923 285.335 1.90668 282.661 1.08142C280.377 0.438478 277.944 0.566304 275.739 1.44512C273.535 2.32394 271.682 3.90477 270.466 5.943C269.438 3.89761 267.787 2.23222 265.75 1.18787C263.713 0.143507 261.397 -0.225649 259.136 0.133824C256.386 0.643466 253.865 2.00135 251.926 4.01691C249.869 5.99742 248.467 8.56017 247.909 11.3608C247.26 14.9247 247.769 18.6027 249.361 21.8565C251.266 25.1853 253.94 28.0105 257.158 30.0964C262.36 33.6499 269.22 38.1304 269.22 38.1304C269.22 38.1304 275.482 34.0104 281.054 31.0646C284.486 29.3858 287.47 26.9144 289.758 23.8546C291.746 20.7948 292.696 17.1759 292.467 13.5341Z" fill="white"/>
<path opacity="0.5" d="M242.924 38.8411C242.49 36.9714 241.49 35.2809 240.06 34.0001C238.715 32.6935 236.993 31.8431 235.137 31.5693C233.556 31.3667 231.953 31.6934 230.578 32.4985C229.203 33.3035 228.133 34.5415 227.536 36.0189C226.916 35.1436 226.11 34.4157 225.177 33.8868C224.307 33.4105 223.349 33.1141 222.362 33.015C221.375 32.9159 220.377 33.0162 219.43 33.31C217.656 33.9234 216.118 35.0757 215.032 36.606C213.871 38.1277 213.202 39.9676 213.116 41.8796C213.047 44.3218 213.77 46.7208 215.176 48.7188C216.777 50.7281 218.836 52.3245 221.181 53.3744C224.981 55.2181 229.987 57.4943 229.987 57.4943C229.987 57.4943 233.726 54.1263 237.125 51.6131C239.239 50.1542 240.97 48.2075 242.172 45.9378C243.174 43.7132 243.438 41.2263 242.924 38.8411Z" fill="white"/>
<path d="M384.497 27.4081C384.788 27.3897 385.081 27.3897 385.372 27.4081L387.958 27.4699C388.524 27.4699 389.163 27.4699 389.863 27.5317L392.139 27.7892L394.797 28.0982L397.773 28.6956C402.792 29.6905 407.647 31.3859 412.193 33.7323C417.873 36.6028 422.933 40.5608 427.087 45.3816C431.664 50.7805 434.596 57.3797 435.533 64.3953C435.731 66.2527 435.779 68.1231 435.677 69.9882C435.595 70.9358 435.616 71.8937 435.44 72.8516C435.265 73.8095 435.08 74.7674 434.905 75.7356C433.953 79.7621 432.316 83.5947 430.064 87.0656C427.507 90.9193 424.381 94.3641 420.794 97.2831C416.734 100.465 412.243 103.056 407.455 104.977C402.279 107.115 396.817 108.482 391.243 109.035C389.804 109.212 388.357 109.312 386.907 109.334C385.444 109.416 383.982 109.458 382.519 109.396C379.574 109.301 376.638 109.005 373.733 108.51C367.622 107.478 361.713 105.486 356.223 102.608H356.749L338.93 108.376L337.9 108.716L338.198 107.83C340.004 102.591 341.752 97.4994 343.441 92.5554L343.524 92.9262C338.835 88.0542 335.553 82.0034 334.027 75.4163C333.344 72.4851 333.108 69.4674 333.327 66.4656C333.364 65.0216 333.533 63.5839 333.831 62.1705C333.976 61.4701 334.109 60.7697 334.243 60.1105C334.377 59.4513 334.655 58.7612 334.861 58.0505C338.302 47.2974 346.562 39.3561 354.73 34.8035C358.451 32.6939 362.41 31.0343 366.523 29.8595L369.201 29.0664L371.725 28.5514L374.042 28.0879C374.784 27.9746 375.495 27.9128 376.174 27.8304C377.513 27.6965 378.698 27.5008 379.738 27.4596L382.354 27.3978H383.951H384.497C384.318 27.4382 384.135 27.4589 383.951 27.4596L382.365 27.5626L379.759 27.7068C378.729 27.7686 377.565 27.9746 376.226 28.1291C368.783 29.1399 361.608 31.5887 355.101 35.3391C347.087 39.8814 339.043 47.6991 335.737 58.3286C335.541 58.9878 335.284 59.6367 335.139 60.3165C334.995 60.9963 334.882 61.6864 334.748 62.3765C334.46 63.763 334.301 65.1733 334.274 66.5892C334.075 69.5345 334.322 72.493 335.005 75.3648C336.542 81.7949 339.779 87.6934 344.378 92.4421L344.533 92.6172L344.461 92.8232C342.785 97.7535 341.069 102.852 339.311 108.119L338.559 107.573L356.357 101.825L356.635 101.733L356.883 101.867C362.244 104.674 368.014 106.62 373.981 107.635C376.818 108.117 379.684 108.406 382.56 108.5C383.992 108.551 385.426 108.531 386.856 108.438C388.271 108.423 389.684 108.33 391.089 108.16C396.537 107.634 401.88 106.319 406.951 104.256C411.637 102.376 416.037 99.8488 420.021 96.7475C423.538 93.8898 426.605 90.5182 429.116 86.7463C431.342 83.3381 432.962 79.5714 433.906 75.612C434.091 74.6644 434.266 73.7271 434.452 72.7898C434.637 71.8525 434.606 70.9152 434.689 69.9882C434.801 68.1582 434.763 66.3221 434.575 64.4983C433.696 57.603 430.858 51.1044 426.397 45.773C422.35 40.988 417.406 37.041 411.843 34.1546C407.377 31.7977 402.608 30.0649 397.67 29.0046L394.735 28.3763L392.088 28.0364L389.832 27.7377C389.142 27.6759 388.504 27.6656 387.937 27.6244L385.372 27.4699C385.079 27.479 384.786 27.4583 384.497 27.4081Z" fill="#263238"/>
<path d="M357.666 63.6228V65.6828H353.947V75.5914H351.64V65.6519H347.922V63.5919L357.666 63.6228Z" fill="#263238"/>
<path d="M361.579 63.6228V68.7728H367.553V63.6228H369.84V75.5605H367.553V70.7195H361.579V75.5605H359.313V63.6228H361.579Z" fill="#263238"/>
<path d="M380.552 73.037H374.763L373.733 75.5605H371.365L376.597 63.6228H378.883L384.033 75.5605H381.572L380.552 73.037ZM379.728 71.08L377.668 66.0639L375.557 71.08H379.728Z" fill="#263238"/>
<path d="M387.69 63.6228L393.87 71.7907V63.6228H396.095V75.5605H393.921L387.741 67.4132V75.5605H385.506V63.6228H387.69Z" fill="#263238"/>
<path d="M406.92 75.5605L403.202 70.4105L401.286 72.4705V75.4678H398.999V63.6228H401.286V69.4629L406.693 63.6228H409.351L404.798 68.6698L409.68 75.5605H406.92Z" fill="#263238"/>
<path d="M415.314 65.6004C414.284 65.6004 413.543 65.9918 413.543 66.7334C413.543 69.1539 419.949 67.8355 419.939 72.1203C419.939 74.3554 417.992 75.6532 415.366 75.6532C413.508 75.6414 411.717 74.9613 410.319 73.7374L411.267 71.8113C412.399 72.8506 413.853 73.472 415.387 73.5726C416.664 73.5726 417.447 73.0885 417.447 72.2542C417.447 69.7616 411.03 71.2242 411.03 66.9291C411.03 64.8691 412.822 63.5198 415.5 63.5198C417.029 63.5271 418.525 63.9663 419.816 64.7867L418.899 66.7643C417.821 66.082 416.588 65.6818 415.314 65.6004Z" fill="#263238"/>
<path d="M423.915 74.4687C423.93 74.6314 423.911 74.7956 423.86 74.9506C423.808 75.1056 423.724 75.2481 423.614 75.369C423.504 75.4899 423.37 75.5864 423.22 75.6525C423.071 75.7186 422.909 75.7527 422.746 75.7527C422.582 75.7527 422.421 75.7186 422.271 75.6525C422.122 75.5864 421.988 75.4899 421.878 75.369C421.768 75.2481 421.684 75.1056 421.632 74.9506C421.58 74.7956 421.562 74.6314 421.577 74.4687C421.562 74.3059 421.58 74.1418 421.632 73.9867C421.684 73.8317 421.768 73.6892 421.878 73.5683C421.988 73.4475 422.122 73.3509 422.271 73.2848C422.421 73.2187 422.582 73.1846 422.746 73.1846C422.909 73.1846 423.071 73.2187 423.22 73.2848C423.37 73.3509 423.504 73.4475 423.614 73.5683C423.724 73.6892 423.808 73.8317 423.86 73.9867C423.911 74.1418 423.93 74.3059 423.915 74.4687ZM423.812 63.7464V66.7128L423.441 71.6774H422.061L421.68 66.7128V63.7464H423.812Z" fill="#263238"/>
<path d="M123.743 166.468C123.743 166.468 91.9882 161.122 84.8812 180.033C78.8763 196.019 103.874 224.611 103.874 224.611L124.824 204.578L123.743 166.468Z" fill="#FFBE9D"/>
<path d="M82.0796 253.719C82.0796 253.719 82.9242 291.19 94.2645 326.014C97.993 337.499 110.744 397.692 110.744 397.692C98.1578 422.216 89.0115 436.543 85.2108 458.379H244.706L232.624 385.239C232.624 385.239 237.516 326.334 237.558 325.747C241.07 279.86 243.82 229.689 241.327 227.969C225.043 216.804 192.444 201.787 171.288 199.582C150.131 197.378 88.0227 220.646 82.0796 253.719Z" fill="#263238"/>
<path d="M184.029 346.748C183.967 347.038 183.878 347.321 183.761 347.593C183.545 348.19 183.256 348.983 182.885 349.982L182.236 351.703C181.979 352.321 181.649 352.969 181.32 353.68C180.604 355.308 179.803 356.896 178.92 358.439C178.425 359.294 177.89 360.2 177.385 361.127C176.88 362.054 176.17 362.971 175.541 363.939C174.169 365.996 172.695 367.983 171.123 369.892C167.475 374.234 163.404 378.202 158.969 381.737C154.473 385.198 149.643 388.2 144.549 390.698C142.159 391.728 139.914 392.841 137.71 393.572C136.608 393.953 135.578 394.386 134.537 394.684L131.55 395.529C129.855 396.015 128.136 396.414 126.4 396.724C125.638 396.868 124.927 397.033 124.258 397.136L122.435 397.352L119.911 397.63C119.619 397.678 119.322 397.699 119.026 397.692C119.313 397.614 119.605 397.559 119.901 397.527L122.404 397.146L124.217 396.878C124.876 396.765 125.587 396.59 126.349 396.425C127.863 396.075 129.624 395.776 131.499 395.158L134.455 394.293C135.485 393.984 136.515 393.541 137.545 393.15C139.739 392.408 141.953 391.327 144.322 390.255C154.491 385.31 163.493 378.26 170.731 369.573C172.338 367.513 173.914 365.638 175.16 363.692C175.799 362.724 176.468 361.838 177.025 360.911C177.581 359.984 178.055 359.098 178.58 358.253C179.61 356.585 180.331 354.947 181.042 353.557C181.382 352.856 181.721 352.207 181.989 351.6L182.679 349.9C183.091 348.922 183.411 348.139 183.648 347.562C183.759 347.284 183.887 347.012 184.029 346.748Z" fill="#455A64"/>
<path d="M216.721 370.593C216.673 370.667 216.618 370.736 216.556 370.799C216.412 370.964 216.226 371.149 216 371.386C215.485 371.932 214.764 372.673 213.857 373.611L212.292 375.217C211.705 375.784 211.025 376.361 210.324 376.999C208.882 378.246 207.317 379.77 205.38 381.191L202.404 383.509C201.374 384.302 200.21 385.033 199.046 385.837C196.749 387.495 194.123 388.978 191.383 390.595C185.344 393.928 179.023 396.72 172.493 398.938C165.927 401.056 159.19 402.597 152.356 403.542C149.194 403.872 146.176 404.253 143.375 404.294C141.964 404.346 140.594 404.449 139.255 404.438L135.485 404.356C133.075 404.356 130.922 404.088 129.017 403.944C128.069 403.851 127.183 403.79 126.369 403.687L124.165 403.336L121.075 402.842L120.282 402.698L120.014 402.626H120.292L121.086 402.708L124.176 403.11L126.38 403.419C127.193 403.501 128.079 403.542 129.027 403.625C130.922 403.738 133.075 403.996 135.475 403.954H139.234C140.532 403.954 141.891 403.841 143.354 403.79C146.166 403.728 149.153 403.326 152.294 402.986C165.936 401.155 179.114 396.784 191.146 390.101C193.875 388.504 196.502 387.011 198.799 385.404C199.963 384.611 201.116 383.9 202.167 383.118L205.154 380.831C207.09 379.43 208.666 377.937 210.118 376.711C210.839 376.083 211.519 375.516 212.117 374.97C212.714 374.424 213.229 373.878 213.713 373.405L215.928 371.252L216.515 370.706L216.721 370.593Z" fill="#455A64"/>
<path d="M181.382 221.48C181.382 221.532 180.753 221.841 179.661 222.51C178.126 223.468 176.738 224.644 175.541 226.002C173.761 228.012 172.343 230.315 171.349 232.81C170.123 235.863 169.427 239.102 169.289 242.389C169.022 249.424 170.731 255.666 171.988 260.084C172.627 262.299 173.193 264.081 173.564 265.317C173.739 265.883 173.873 266.347 173.986 266.748C174.051 266.91 174.089 267.08 174.099 267.253C174.013 267.102 173.94 266.944 173.883 266.779C173.749 266.398 173.574 265.945 173.368 265.379C172.925 264.163 172.338 262.402 171.617 260.229C170.784 257.643 170.096 255.012 169.557 252.349C168.889 249.08 168.609 245.744 168.723 242.41C168.881 239.062 169.612 235.766 170.886 232.666C171.924 230.133 173.403 227.803 175.253 225.786C176.502 224.429 177.955 223.276 179.558 222.366C179.995 222.12 180.445 221.9 180.908 221.707C181.057 221.615 181.216 221.539 181.382 221.48Z" fill="#455A64"/>
<path d="M198.016 195.576C202.95 197.347 208.718 199.036 213.229 196.08C216.319 194.02 217.967 190.312 219.347 186.81C222.555 178.584 225.339 170.199 227.69 161.689C227.69 161.689 240.05 133.096 239.525 116.874C239 100.651 241.389 93.5236 220.099 87.7763C198.809 82.0289 144.158 178.416 144.158 178.416L198.016 195.576Z" fill="#FFBE9D"/>
<path d="M239.597 105.564C239.597 105.564 251.957 82.5335 235.693 75.4987C219.43 68.4638 204.031 76.9716 204.031 76.9716C204.031 76.9716 159.01 69.6998 150.554 87.4878C142.098 105.276 131.571 119.984 133.909 136.711C136.247 153.439 145.692 173.266 145.692 173.266C159.34 179.745 177.169 175.789 186.779 164.13C191.55 158.426 195.569 152.133 198.737 145.405C202.249 138.195 210.86 131.788 216.401 139.451C217.277 140.656 221.284 140.213 222.108 137.494C223.642 132.457 223.261 122.765 225.95 122.209C230.07 121.344 234.313 120.036 237.341 117.059C240.369 114.082 241.801 109.159 239.597 105.554" fill="#C447FF"/>
<path d="M211.118 151.183C210.443 151.214 209.781 150.99 209.264 150.555C208.572 150.098 208.022 149.457 207.677 148.703C207.333 147.95 207.207 147.114 207.314 146.293C207.422 145.471 207.758 144.696 208.285 144.056C208.812 143.417 209.508 142.938 210.294 142.675C210.903 142.379 211.602 142.324 212.251 142.521C211.634 142.624 211.029 142.794 210.448 143.025C209.764 143.305 209.166 143.762 208.717 144.349C208.267 144.936 207.982 145.632 207.889 146.366C207.797 147.099 207.901 147.844 208.192 148.524C208.482 149.204 208.948 149.795 209.542 150.235C210.038 150.597 210.565 150.914 211.118 151.183Z" fill="#EB996E"/>
<path d="M203.053 140.708C200.117 144.096 198.581 148.475 198.758 152.954C198.741 155.041 199.472 157.065 200.818 158.661C202.239 160.164 204.752 160.721 206.421 159.526C206.718 159.358 206.949 159.094 207.076 158.778C207.203 158.462 207.219 158.112 207.121 157.785C206.945 157.49 206.692 157.248 206.39 157.085C205.119 156.187 204.041 155.043 203.221 153.721C202.401 152.398 201.856 150.924 201.618 149.386C201.379 147.849 201.453 146.279 201.834 144.77C202.215 143.261 202.896 141.845 203.835 140.605" fill="#EB996E"/>
<path d="M215.021 138.339C215.021 138.339 214.723 137.886 213.991 137.309C213.466 136.913 212.864 136.633 212.223 136.487C211.582 136.342 210.917 136.334 210.273 136.464C208.325 136.743 206.519 137.642 205.123 139.029C203.423 140.745 202.309 142.955 201.94 145.343C201.494 147.723 201.686 150.178 202.496 152.46C202.808 153.386 203.308 154.238 203.963 154.963C204.619 155.688 205.417 156.27 206.307 156.673C207.523 157.208 208.883 157.32 210.17 156.992C210.629 156.827 211.08 156.638 211.519 156.426C211.519 156.426 211.427 156.518 211.231 156.673C210.911 156.887 210.564 157.06 210.201 157.188C208.852 157.631 207.39 157.572 206.081 157.023C205.127 156.62 204.268 156.023 203.559 155.269C202.849 154.515 202.305 153.622 201.961 152.645C201.094 150.281 200.881 147.726 201.343 145.25C201.729 142.751 202.91 140.443 204.711 138.668C206.195 137.223 208.121 136.316 210.18 136.093C210.87 135.964 211.58 135.989 212.258 136.167C212.937 136.345 213.568 136.672 214.105 137.123C214.384 137.374 214.624 137.666 214.815 137.989C214.98 138.246 215.042 138.328 215.021 138.339Z" fill="#263238"/>
<g opacity="0.2">
<path opacity="0.2" d="M136.834 123.826C139.718 127.792 143.416 131.355 145.785 135.65C148.514 140.605 149.802 146.229 150.543 151.832C151.573 160.072 151.203 166.468 147.917 174.347C153.324 172.679 156.157 168.899 157.094 163.327C157.962 157.307 157.491 151.17 155.714 145.353C153.71 138.712 149.868 132.773 144.631 128.224C140.944 124.959 134.723 120.437 133.621 115.638C133.579 115.669 134.887 121.251 136.834 123.826Z" fill="black"/>
</g>
<g opacity="0.2">
<path opacity="0.2" d="M138.328 111.621C140.701 114.763 144.116 116.955 147.961 117.804C151.806 118.653 155.828 118.103 159.303 116.252C162.778 114.402 165.48 111.372 166.921 107.708C168.363 104.044 168.45 99.9861 167.168 96.2634C167.086 95.909 166.932 95.5752 166.716 95.2828C166.5 94.9904 166.226 94.7457 165.911 94.5639C165.454 94.4456 164.97 94.4936 164.546 94.6993C164.121 94.905 163.784 95.2549 163.594 95.6866C163.252 96.5672 163.074 97.5026 163.068 98.447C162.82 101.01 161.938 103.472 160.502 105.609C159.066 107.747 157.121 109.494 154.841 110.694C152.562 111.893 150.021 112.507 147.446 112.48C144.871 112.453 142.342 111.786 140.089 110.539" fill="black"/>
</g>
<path d="M160.452 86.1901C159.174 85.0874 157.651 84.3057 156.01 83.9098C154.369 83.5139 152.658 83.5152 151.017 83.9138C147.944 84.6959 145.097 86.1881 142.705 88.2707C139.638 90.5027 137.117 93.4009 135.33 96.7475C133.693 100.147 133.27 104.318 135.042 107.665C137.267 111.961 142.489 114.031 147.32 113.845C150.652 113.64 153.868 112.547 156.635 110.68C159.403 108.813 161.62 106.239 163.058 103.226C165.86 97.1904 166.714 90.413 160.452 86.2004" fill="#263238"/>
<path d="M123.444 167.014L148.164 173.987C148.164 173.987 151.44 172.102 150.605 157.25C150.214 150.235 144.703 143.86 142.365 137.237C140.46 131.757 137.401 126.741 135.382 121.303C133.363 115.864 131.973 110.786 134.496 105.564C137.02 100.342 142.365 100.208 147.423 103.051C150.36 101.447 152.572 98.7783 153.603 95.5939C150.513 87.6321 145.785 84.0889 140.213 82.0289C136.694 80.6538 132.904 80.112 129.141 80.4462C125.377 80.7804 121.743 81.9813 118.521 83.955C110.734 88.9402 106.233 97.4788 104.317 106.337L104.255 106.584C102.08 116.963 103.68 127.777 108.767 137.082C112.629 144.107 116.09 156.477 109.426 165.922L119.221 166.355C120.649 166.422 122.064 166.643 123.444 167.014Z" fill="#C447FF"/>
<path d="M153.984 90.928C154.086 91.8688 154.051 92.8194 153.881 93.7502C153.625 96.0506 152.789 98.2481 151.45 100.136C150.681 101.172 149.697 102.03 148.566 102.649C147.638 103.141 146.616 103.429 145.569 103.494C144.873 103.54 144.175 103.459 143.509 103.257C143.045 103.103 142.808 102.958 142.818 102.927C143.723 103.112 144.647 103.178 145.569 103.123C146.548 103 147.495 102.693 148.36 102.217C149.413 101.612 150.328 100.794 151.048 99.8169C152.346 97.9788 153.197 95.8624 153.53 93.6369C153.809 91.9889 153.901 90.9177 153.984 90.928Z" fill="#455A64"/>
<path d="M121.384 166.468C122.307 165.333 123.134 164.124 123.856 162.853C124.639 161.336 125.164 159.7 125.412 158.012C125.709 155.764 125.688 153.486 125.35 151.245C124.449 145.397 123.043 139.638 121.147 134.033C120.117 130.861 118.943 127.544 117.934 124.032C116.826 120.417 116.101 116.695 115.771 112.929C115.491 109.142 115.874 105.336 116.904 101.681C117.389 99.9431 118.08 98.2695 118.964 96.696C119.812 95.1792 120.874 93.7917 122.116 92.576C124.409 90.2992 127.296 88.7143 130.448 88.0028C133.184 87.3757 136.029 87.4075 138.75 88.0955C140.995 88.6718 143.099 89.7025 144.93 91.1237C146.31 92.1772 147.522 93.4345 148.525 94.8523C149.163 95.738 149.709 96.6872 150.152 97.6848C150.307 98.0247 150.399 98.2925 150.471 98.4779C150.51 98.5634 150.538 98.6534 150.554 98.7457C150.503 98.667 150.458 98.5843 150.42 98.4985C150.338 98.3234 150.224 98.0556 150.059 97.726C149.579 96.7589 149.01 95.8383 148.36 94.9759C147.339 93.6034 146.125 92.3857 144.755 91.3606C142.952 89.9971 140.892 89.0125 138.699 88.4663C136.034 87.8261 133.257 87.8261 130.593 88.4663C127.526 89.1712 124.722 90.7321 122.507 92.9674C121.284 94.146 120.242 95.4998 119.417 96.9844C118.535 98.5222 117.843 100.162 117.357 101.867C116.352 105.466 115.979 109.212 116.255 112.939C116.586 116.666 117.3 120.349 118.387 123.929C119.417 127.421 120.54 130.737 121.57 133.92C123.454 139.561 124.833 145.359 125.69 151.245C126.016 153.516 126.016 155.823 125.69 158.094C125.411 159.81 124.847 161.467 124.021 162.997C123.719 163.552 123.375 164.082 122.991 164.583C122.736 164.969 122.45 165.335 122.136 165.675L121.57 166.303C121.514 166.364 121.452 166.42 121.384 166.468Z" fill="#263238"/>
<path d="M147.68 103.978C146.906 103.108 145.935 102.437 144.848 102.021C143.357 101.505 141.751 101.418 140.214 101.772C138.677 102.125 137.27 102.904 136.154 104.019C133.322 106.852 132.282 112.187 134.094 117.152C135.066 119.757 136.413 122.207 138.091 124.424C139.811 126.751 141.737 129.089 143.478 131.634C145.225 134.107 146.706 136.759 147.896 139.544C148.904 142.18 149.636 144.914 150.08 147.701C150.513 150.338 150.935 152.851 151.11 155.251C151.253 157.463 151.273 159.681 151.172 161.895C151.069 163.955 150.842 165.747 150.677 167.343C150.564 168.728 150.259 170.09 149.771 171.391C149.452 172.207 149.018 172.974 148.483 173.668C148.308 173.915 148.144 174.08 148.051 174.193L147.886 174.358C148.04 174.098 148.208 173.847 148.391 173.606C148.886 172.9 149.284 172.131 149.575 171.319C150.379 169.259 150.523 165.891 150.791 161.874C150.871 159.676 150.827 157.475 150.657 155.282C150.441 152.767 150.097 150.264 149.627 147.784C149.18 145.035 148.452 142.339 147.454 139.74C146.253 136.998 144.765 134.391 143.014 131.963C141.284 129.409 139.378 127.091 137.648 124.753C135.941 122.499 134.58 120.003 133.61 117.347C131.756 112.197 132.869 106.708 135.856 103.793C137.183 102.464 138.916 101.616 140.779 101.383C142.17 101.187 143.589 101.35 144.899 101.856C145.732 102.15 146.494 102.617 147.134 103.226C147.292 103.389 147.439 103.561 147.577 103.741C147.649 103.906 147.69 103.978 147.68 103.978Z" fill="#263238"/>
<path d="M161.328 102.196C161.446 102.007 161.584 101.831 161.74 101.671C162.028 101.341 162.419 100.837 162.996 100.249C164.582 98.5619 166.305 97.0082 168.146 95.6042C174.295 90.9014 181.559 87.874 189.228 86.8179C196.897 85.7618 204.709 86.713 211.9 89.5787C214.07 90.4321 216.165 91.4657 218.163 92.6687C218.884 93.0807 219.399 93.4618 219.759 93.6987C219.954 93.8054 220.134 93.937 220.295 94.0901C220.09 94.0061 219.893 93.9026 219.708 93.7811C219.327 93.5854 218.791 93.2352 218.06 92.8541C210.366 88.5097 201.577 86.4894 192.758 87.0378C183.94 87.5862 175.469 90.6799 168.373 95.9441C166.507 97.3092 164.744 98.8102 163.099 100.435C162.491 101.001 162.069 101.465 161.77 101.784C161.638 101.937 161.489 102.075 161.328 102.196Z" fill="#263238"/>
<path d="M154.663 109.241C154.835 109.362 154.991 109.504 155.127 109.664L156.384 110.941C157.506 111.971 159.103 113.598 161.276 115.339C163.785 117.397 166.47 119.231 169.3 120.819C172.753 122.783 176.457 124.27 180.31 125.237C182.303 125.735 184.331 126.079 186.377 126.267C188.283 126.412 190.196 126.43 192.104 126.319C195.76 126.102 199.046 125.618 201.817 125.289C204.005 125.04 206.206 124.92 208.409 124.928C209.191 124.928 209.799 124.98 210.211 125.021C210.419 125.027 210.626 125.055 210.829 125.103C210.829 125.103 209.964 125.103 208.409 125.103C206.218 125.166 204.031 125.341 201.858 125.629C199.098 125.948 195.822 126.473 192.135 126.72C190.201 126.854 188.26 126.854 186.326 126.72C184.242 126.538 182.176 126.194 180.146 125.69C176.25 124.709 172.509 123.191 169.032 121.179C166.184 119.559 163.495 117.676 160.998 115.555C159.315 114.136 157.715 112.619 156.208 111.013L155.024 109.664C154.889 109.536 154.768 109.394 154.663 109.241Z" fill="#263238"/>
<path d="M154.53 113.526C154.53 113.526 154.684 113.639 154.942 113.907L156.033 115.071L156.816 115.926C157.115 116.235 157.455 116.534 157.846 116.884C158.567 117.553 159.34 118.367 160.318 119.14L161.822 120.386C162.337 120.808 162.934 121.2 163.511 121.643C164.675 122.528 166.014 123.332 167.394 124.207C173.527 127.862 180.34 130.231 187.417 131.17C189.055 131.345 190.6 131.551 192.063 131.561C192.794 131.561 193.494 131.644 194.123 131.634L196.069 131.582C197.316 131.582 198.428 131.428 199.407 131.355C199.901 131.304 200.364 131.273 200.776 131.222L201.92 131.036L203.506 130.799C203.694 130.776 203.884 130.776 204.072 130.799C203.894 130.861 203.712 130.91 203.527 130.943L201.961 131.283L200.818 131.51C200.395 131.582 199.942 131.623 199.448 131.685C198.335 131.85 197.214 131.956 196.09 132.004L194.123 132.087C193.443 132.087 192.732 132.087 191.991 132.087C190.423 132.051 188.859 131.934 187.304 131.737C180.147 130.849 173.26 128.455 167.096 124.712C165.754 123.899 164.455 123.019 163.202 122.075C162.615 121.632 162.028 121.231 161.503 120.788L160.019 119.5C159.165 118.768 158.351 117.991 157.578 117.172C157.228 116.822 156.899 116.503 156.61 116.142C156.322 115.782 156.095 115.524 155.858 115.257L154.828 114.021C154.622 113.691 154.509 113.526 154.53 113.526Z" fill="#263238"/>
<path d="M137.287 170.928C137.287 170.928 137.39 170.609 137.607 170.011C137.71 169.702 137.844 169.331 137.988 168.899C138.132 168.466 138.266 167.931 138.42 167.364C138.78 165.941 139.049 164.496 139.224 163.038C139.428 161.112 139.487 159.174 139.399 157.239C139.101 152.189 138.017 147.216 136.185 142.5C134.239 137.123 130.922 131.747 128.244 125.721C126.91 122.79 125.935 119.709 125.339 116.544C124.784 113.585 124.829 110.545 125.473 107.604C126.098 104.944 127.348 102.473 129.119 100.394C130.659 98.5669 132.694 97.2253 134.98 96.5312C136.871 95.9995 138.867 95.957 140.779 96.4076C142.224 96.7254 143.584 97.3507 144.765 98.241C145.508 98.8254 146.158 99.5201 146.691 100.301L147.175 101.135L146.65 100.322C146.105 99.5737 145.453 98.9107 144.714 98.3543C143.533 97.4864 142.181 96.879 140.748 96.5724C138.857 96.1359 136.885 96.1926 135.021 96.7372C132.771 97.429 130.768 98.7559 129.253 100.559C127.509 102.619 126.28 105.066 125.669 107.696C125.039 110.611 124.997 113.623 125.545 116.554C126.14 119.701 127.112 122.765 128.44 125.68C131.118 131.685 134.424 137.072 136.371 142.469C138.196 147.206 139.267 152.201 139.543 157.27C139.63 159.216 139.565 161.165 139.347 163.1C139.156 164.558 138.874 166.003 138.503 167.426L138.05 168.961L137.648 170.073C137.421 170.619 137.287 170.928 137.287 170.928Z" fill="#263238"/>
<path d="M217.174 112.053L216.607 112.187L214.97 112.506C214.259 112.661 213.384 112.826 212.354 112.96C211.324 113.094 210.17 113.31 208.882 113.423C207.595 113.536 206.174 113.722 204.639 113.794C203.104 113.866 201.487 113.928 199.767 113.969C196.036 113.975 192.307 113.758 188.602 113.32C184.901 112.849 181.232 112.161 177.612 111.26C175.953 110.807 174.367 110.405 172.915 109.911C171.463 109.416 170.113 108.984 168.898 108.531C167.683 108.077 166.591 107.624 165.633 107.233C164.675 106.841 163.872 106.481 163.212 106.203L161.698 105.492C161.358 105.327 161.183 105.224 161.183 105.224L161.719 105.451L163.254 106.131C163.913 106.429 164.716 106.79 165.684 107.161C166.653 107.532 167.744 108.016 168.95 108.428C170.155 108.84 171.504 109.355 172.977 109.787C174.45 110.22 176.005 110.663 177.663 111.116C181.274 112.011 184.933 112.698 188.622 113.176C192.321 113.615 196.042 113.839 199.767 113.845C201.477 113.845 203.104 113.845 204.629 113.691C206.153 113.536 207.574 113.485 208.862 113.351C210.149 113.217 211.313 113.052 212.343 112.918C213.373 112.785 214.238 112.64 214.949 112.496L216.597 112.208L217.174 112.053Z" fill="#263238"/>
<path d="M134.342 321.946C133.816 324.83 131.55 326.354 129.892 327.611C125.441 330.959 120.07 332.857 114.504 333.049C113.833 333.136 113.152 333.01 112.557 332.689C111.362 331.886 111.62 330.062 112.166 328.723C112.712 327.384 113.412 325.85 112.681 324.603C110.91 326.01 108.784 326.9 106.539 327.172C104.293 327.445 102.017 327.091 99.9603 326.148C99.7138 326.029 99.5028 325.847 99.3486 325.621C99.1943 325.394 99.1022 325.132 99.0813 324.858C99.0605 324.585 99.1117 324.311 99.2298 324.064C99.3479 323.817 99.5287 323.605 99.7543 323.45C105.543 319.33 109.477 311.543 110.497 304.508L134.342 321.946Z" fill="#C447FF"/>
<g opacity="0.2">
<path opacity="0.2" d="M133.167 320.556C126.126 314.53 118.54 309.171 110.507 304.549C110.188 307.639 109.941 311.234 111.434 313.974C112.928 316.714 115.554 318.145 118.263 319.474C122.713 321.699 127.75 323.687 132.549 322.368C133.126 322.214 133.796 321.822 133.693 321.235C133.601 320.955 133.416 320.715 133.167 320.556Z" fill="black"/>
</g>
<path d="M106.738 209.934C120.293 205.062 125.999 204.423 139.152 201.529C140.244 201.292 147.835 199.819 148.926 200.067C151.46 200.643 153.046 206.319 152.737 208.894C152.428 211.469 150.883 213.714 149.647 216.001C146.965 220.982 145.357 226.472 144.93 232.114C144.502 237.756 145.264 243.425 147.165 248.754C148.741 253.101 151.069 257.149 152.428 261.568C153.788 265.986 155.982 269.736 152.913 273.413C140.985 269.488 126.225 263.607 114.298 259.693C115.441 255.47 114.422 254.636 111.126 251.772C107.83 248.909 103.802 246.952 100.65 243.924C98.1807 241.56 96.334 238.622 95.2752 235.371C94.2163 232.12 93.9781 228.658 94.5817 225.293C95.1854 221.928 96.6122 218.765 98.735 216.085C100.858 213.405 103.611 211.292 106.748 209.934" fill="#C447FF"/>
<g opacity="0.2">
<path opacity="0.2" d="M109.436 208.986C114.123 214.734 122.991 218.823 130.397 219.348C138.182 219.818 145.842 217.231 151.749 212.138C152.166 211.466 152.456 210.722 152.603 209.944C152.439 209.419 150.832 209.81 150.317 209.645C143.178 207.307 135.815 205.716 128.347 204.897C121.796 204.362 109.436 209.285 109.436 209.017" fill="black"/>
</g>
<path d="M132.879 264.833C132.991 263.989 133.053 263.14 133.064 262.289C132.955 259.972 132.31 257.712 131.179 255.686C130.427 254.277 129.536 252.945 128.522 251.711C127.441 250.372 126.174 249.022 124.824 247.591C123.475 246.159 122.064 244.686 120.704 243.007C118.652 240.475 117.135 237.553 116.245 234.417C115.354 231.282 115.109 227.999 115.524 224.766C116.309 218.913 119.247 213.563 123.763 209.759C124.247 209.346 124.756 208.964 125.288 208.615C125.461 208.475 125.651 208.357 125.854 208.265C125.854 208.265 125.133 208.821 123.897 209.913C122.174 211.469 120.677 213.258 119.448 215.228C117.62 218.14 116.453 221.416 116.028 224.828C115.523 229.011 116.13 233.253 117.79 237.126C119.51 241.246 122.528 244.418 125.185 247.251C126.524 248.672 127.791 250.042 128.872 251.371C129.888 252.653 130.775 254.033 131.519 255.491C132.645 257.574 133.246 259.9 133.27 262.268C133.261 262.908 133.192 263.546 133.064 264.173C133.031 264.4 132.969 264.622 132.879 264.833Z" fill="#263238"/>
<path d="M142.376 268.911C142.376 268.911 142.376 268.685 142.53 268.252C142.609 267.989 142.668 267.721 142.705 267.449C142.778 267.085 142.83 266.717 142.86 266.347C143.046 263.968 142.694 261.577 141.83 259.353C141.257 257.816 140.547 256.334 139.708 254.924C138.715 253.32 137.628 251.775 136.453 250.299C134.033 247.137 131.066 243.841 128.955 239.701C127.961 237.676 127.241 235.529 126.812 233.315C126.444 231.249 126.316 229.148 126.431 227.052C126.636 223.5 127.525 220.02 129.047 216.804C130.056 214.634 131.363 212.616 132.931 210.809C133.456 210.15 133.96 209.779 134.259 209.398C134.558 209.017 134.754 208.924 134.754 208.924L134.29 209.429C134.002 209.759 133.507 210.191 132.992 210.861C131.462 212.685 130.181 214.705 129.181 216.866C127.692 220.072 126.825 223.533 126.627 227.063C126.522 229.131 126.654 231.204 127.018 233.243C127.446 235.438 128.159 237.567 129.14 239.577C131.2 243.697 134.197 246.973 136.618 250.145C137.79 251.63 138.87 253.184 139.852 254.8C140.7 256.22 141.41 257.716 141.974 259.271C142.844 261.511 143.196 263.92 143.004 266.316C142.975 266.691 142.916 267.063 142.829 267.428C142.788 267.701 142.722 267.97 142.633 268.232C142.448 268.695 142.376 268.911 142.376 268.911Z" fill="#263238"/>
<path d="M220.995 170.928C226.547 176.819 225.62 184.926 222.829 190.632C218.606 199.242 219.842 201.89 217.174 206.349C214.63 210.614 216.597 210.294 218.307 214.96C220.017 219.626 223.189 223.602 226.547 227.238C230.658 231.65 235.164 235.677 240.009 239.268C242.666 241.225 245.859 243.151 249.063 242.358C251.71 241.709 253.626 239.268 254.439 236.703C255.111 234.061 255.327 231.323 255.078 228.608L253.595 185.626" fill="#263238"/>
<path d="M244.706 458.379H366.06C364.711 454.682 359.973 402.162 330.855 385.322C330.855 385.322 320.205 389.153 296.669 377.514C269.323 364.001 236.28 341.67 236.28 341.67L232.624 385.239L244.706 458.379Z" fill="#C447FF"/>
<g opacity="0.2">
<path opacity="0.2" d="M323.264 384.621C321.675 382.781 319.833 381.176 317.794 379.852C305.692 371.273 292.539 364.289 279.427 357.347C267.335 350.93 255.14 344.482 241.987 340.723C240.732 340.246 239.37 340.128 238.052 340.383C237.404 340.534 236.837 340.925 236.466 341.477C236.095 342.03 235.948 342.703 236.054 343.36C245.808 352.774 255.819 361.9 267.448 368.873C279.077 375.846 292.055 380.841 305.558 382.077C307.855 382.283 310.646 382.716 311.48 384.858C311.934 386.053 311.604 387.382 311.656 388.659C311.707 389.936 312.521 391.419 313.798 391.347C315.281 391.254 315.734 389.287 315.755 387.814C315.776 386.341 316.157 384.374 317.64 384.199C318.111 384.228 318.57 384.361 318.983 384.589C319.396 384.817 319.754 385.134 320.029 385.517C321.883 387.464 328.537 396.507 330.391 398.444C330.566 396.034 324.747 386.527 323.264 384.621Z" fill="black"/>
</g>
<path d="M329.619 410.67C329.516 410.67 330.041 409.197 330.381 406.787C330.573 405.377 330.642 403.954 330.587 402.533C330.443 399.041 329.562 395.618 328.002 392.49C327.363 391.214 326.611 389.998 325.756 388.855C324.294 386.908 323.14 385.909 323.212 385.826C323.521 386.013 323.804 386.238 324.057 386.496C324.38 386.765 324.683 387.058 324.963 387.371C325.354 387.769 325.722 388.188 326.065 388.628C326.974 389.76 327.771 390.978 328.445 392.264C329.252 393.851 329.891 395.518 330.35 397.239C330.772 398.967 331.017 400.734 331.081 402.512C331.116 403.965 331.006 405.418 330.752 406.849C330.667 407.398 330.546 407.942 330.391 408.476C330.304 408.887 330.183 409.29 330.031 409.681C329.932 410.025 329.794 410.357 329.619 410.67Z" fill="#263238"/>
<path d="M315.302 397.558C315.219 397.558 315.724 396.744 316.27 395.395C316.989 393.642 317.397 391.778 317.475 389.885C317.535 387.989 317.27 386.098 316.692 384.292C316.239 382.912 315.806 382.098 315.889 382.057C316.394 382.67 316.788 383.367 317.053 384.117C317.757 385.948 318.083 387.903 318.011 389.864C317.938 391.821 317.464 393.742 316.62 395.508C316.318 396.271 315.87 396.967 315.302 397.558Z" fill="#263238"/>
<path d="M284.175 369.388C281.679 369.671 279.169 369.822 276.656 369.841C274.339 369.841 271.558 369.789 268.499 369.522C261.839 368.926 255.285 367.468 249.001 365.185C246.438 364.26 243.924 363.201 241.472 362.013C239.202 360.938 236.995 359.738 234.859 358.418L235.323 358.655L236.641 359.376C237.764 360.015 239.442 360.88 241.533 361.879C243.624 362.878 246.179 363.939 249.063 364.969C252.204 366.078 255.405 367.006 258.652 367.75C261.909 368.45 265.204 368.966 268.519 369.295C271.609 369.573 274.339 369.666 276.656 369.655C278.974 369.645 280.859 369.563 282.156 369.47L283.65 369.367C283.825 369.365 284.001 369.372 284.175 369.388Z" fill="#FAFAFA"/>
<path d="M316.527 394.097L315.683 394.355L313.262 395.076C312.232 395.395 310.924 395.776 309.4 396.106C307.875 396.435 306.166 396.93 304.25 397.228C302.334 397.527 300.202 397.97 297.905 398.197C296.762 398.31 295.577 398.516 294.352 398.578L290.561 398.825C279.282 399.347 267.997 397.908 257.21 394.571L253.605 393.387C252.431 393.026 251.339 392.542 250.257 392.14C248.084 391.358 246.137 390.451 244.335 389.648C242.532 388.844 240.987 388 239.587 387.31C238.186 386.62 237.032 385.94 236.085 385.384L233.901 384.106L233.149 383.653L233.922 384.065L236.126 385.311C237.073 385.857 238.237 386.527 239.638 387.196C241.039 387.866 242.594 388.752 244.407 389.504C246.22 390.255 248.146 391.193 250.319 391.975C251.401 392.367 252.493 392.851 253.667 393.212L257.272 394.375C262.664 395.989 268.174 397.177 273.752 397.929C279.331 398.611 284.955 398.842 290.571 398.619L294.352 398.392C295.577 398.331 296.762 398.135 297.905 398.022C300.202 397.795 302.313 397.414 304.24 397.074C306.166 396.734 307.896 396.312 309.39 396.044C310.883 395.776 312.212 395.364 313.262 395.014L315.693 394.334L316.527 394.097Z" fill="#FAFAFA"/>
<path d="M329.299 396.477C329.183 396.58 329.055 396.67 328.918 396.744C328.661 396.909 328.28 397.115 327.806 397.362C326.539 397.975 325.209 398.448 323.84 398.773C322.468 399.083 321.065 399.239 319.659 399.237C319.123 399.237 318.69 399.237 318.392 399.175C318.235 399.168 318.08 399.143 317.928 399.103C317.928 399.103 318.587 399.103 319.659 399.103C321.046 399.064 322.426 398.888 323.779 398.578C325.136 398.267 326.457 397.818 327.723 397.239C328.712 396.775 329.289 396.446 329.299 396.477Z" fill="#FAFAFA"/>
<path d="M341.803 394.715C341.72 394.864 341.62 395.002 341.505 395.127C341.221 395.486 340.918 395.83 340.598 396.157C338.517 398.398 336.01 400.202 333.224 401.462C332.688 401.699 332.255 401.874 331.946 401.977C331.79 402.043 331.628 402.095 331.462 402.131C331.602 402.035 331.754 401.958 331.915 401.905L333.162 401.318C334.519 400.655 335.818 399.88 337.045 399C338.273 398.113 339.427 397.128 340.495 396.054C340.897 395.642 341.227 395.302 341.443 395.024C341.552 394.909 341.673 394.805 341.803 394.715Z" fill="#FAFAFA"/>
<path d="M352.979 410.67C352.979 410.67 352.66 410.938 352.031 411.432L350.878 412.338C350.362 412.764 349.822 413.159 349.261 413.523C345.768 415.982 342.005 418.031 338.044 419.631C332.161 421.977 326.009 423.586 319.731 424.42C316.198 424.894 312.459 425.255 308.586 425.45C304.713 425.646 300.676 425.697 296.556 425.646C288.81 425.512 281.086 424.782 273.453 423.462C266.408 422.278 260.135 420.826 254.913 419.507C244.459 416.829 238.083 414.841 238.083 414.841L239.247 415.161L242.594 416.088C245.509 416.891 249.722 418.055 254.954 419.353C260.187 420.65 266.459 422.092 273.494 423.267C281.123 424.569 288.839 425.292 296.576 425.43C300.696 425.481 304.703 425.43 308.586 425.244C312.469 425.059 316.187 424.698 319.72 424.214C325.985 423.388 332.125 421.797 338.003 419.476C341.956 417.888 345.721 415.867 349.23 413.451C349.791 413.091 350.331 412.698 350.847 412.277L352.021 411.391L352.979 410.67Z" fill="#FAFAFA"/>
<path d="M360.055 440.457L358.901 440.89L355.585 442.095L353.185 442.94C352.309 443.238 351.331 443.506 350.301 443.826C348.241 444.444 345.862 445.226 343.204 445.886L339.084 446.916C337.642 447.276 336.108 447.554 334.542 447.884C331.401 448.605 328.002 449.099 324.438 449.676C308.897 451.941 293.12 452.079 277.542 450.088C273.958 449.573 270.559 449.14 267.407 448.481C265.831 448.172 264.317 447.925 262.844 447.585L258.662 446.555C255.995 445.978 253.626 445.237 251.535 444.66C250.505 444.361 249.475 444.093 248.63 443.826L246.22 443.012L242.883 441.899C242.12 441.642 241.719 441.487 241.719 441.487L242.893 441.858L246.24 442.94L248.661 443.723C249.547 443.99 250.525 444.248 251.566 444.547C253.626 445.103 256.025 445.844 258.703 446.411L262.875 447.369C264.327 447.698 265.862 447.946 267.438 448.255C270.579 448.903 273.989 449.336 277.563 449.841C293.125 451.805 308.881 451.667 324.407 449.429C327.971 448.862 331.37 448.399 334.501 447.667C336.077 447.328 337.591 447.06 339.053 446.699L343.173 445.669C345.841 445.062 348.19 444.289 350.27 443.681C351.3 443.372 352.33 443.105 353.164 442.816L355.575 441.982L358.901 440.849C359.653 440.581 360.055 440.457 360.055 440.457Z" fill="#FAFAFA"/>
<path d="M241.338 230.029C241.338 230.029 264.173 248.332 275.956 274.793C285.442 296.093 349.086 325.592 354.061 348.623C360.24 377.216 334.655 387.814 321.101 385.765C289.119 380.924 216.762 329.795 216.762 329.795L241.338 230.029Z" fill="#263238"/>
<path d="M261.567 358.758C260.905 358.521 260.278 358.195 259.703 357.79C258.539 357.1 256.88 356.07 254.831 354.782C250.711 352.218 245.118 348.602 238.938 344.596C232.758 340.589 227.186 336.912 223.169 334.223C221.212 332.905 219.615 331.824 218.42 331.031L217.174 330.134C217.02 330.034 216.876 329.92 216.741 329.795C216.914 329.852 217.078 329.935 217.225 330.042L218.554 330.855L223.395 333.945L239.257 344.184L261.567 358.758Z" fill="#455A64"/>
<path d="M230.708 96.6445C221.799 102.309 218.245 114.154 219.945 121.2C220.8 124.743 222.406 128.296 221.706 131.87C221.098 134.96 218.884 137.422 217.215 140.11C214.426 144.602 213.146 149.868 213.563 155.139C213.979 160.409 216.069 165.409 219.528 169.408C222.987 173.406 227.634 176.194 232.79 177.365C237.946 178.535 243.341 178.026 248.187 175.913" fill="#263238"/>
<path d="M225.414 142.984C203.784 95.3467 255.284 71.4096 283.392 79.3509C309.822 86.808 321.09 99.9508 325.437 117.636C329.783 135.321 329.557 154.458 322.646 171.299C319.236 179.6 313.077 188.036 304.157 189.076" fill="#263238"/>
<path d="M250.546 236.776C250.165 214.013 250.175 205.464 250.165 205.598C250.154 205.731 230.595 202.343 226.547 176.819C224.487 164.12 225.167 143.303 226.238 126.288C227.206 110.972 237.352 92.1743 252.616 93.7914L300.264 105.842C302.5 106.077 304.567 107.143 306.055 108.829C307.543 110.515 308.344 112.699 308.298 114.948L303.776 217.216" fill="#FFBE9D"/>
<path d="M250.134 205.598C262.157 205.778 273.995 202.619 284.33 196.472C284.33 196.472 275.688 214.229 250.134 211.85V205.598Z" fill="#EB996E"/>
<path d="M263.802 131.603C264.152 132.56 267.664 132.107 271.805 132.633C275.946 133.158 279.283 134.26 279.829 133.405C280.076 132.993 279.489 132.087 278.14 131.16C276.341 130.022 274.307 129.31 272.192 129.078C270.076 128.846 267.936 129.1 265.934 129.821C264.42 130.398 263.658 131.149 263.802 131.603Z" fill="#263238"/>
<path d="M230.317 143.128C230.708 143.571 233.252 141.82 236.775 141.944C240.297 142.067 242.821 143.911 243.212 143.499C243.408 143.314 243.017 142.531 241.925 141.676C240.432 140.567 238.634 139.944 236.775 139.894C234.944 139.831 233.141 140.35 231.625 141.377C230.564 142.17 230.131 142.933 230.317 143.128Z" fill="#263238"/>
<path d="M263.596 144.498C263.998 144.931 266.48 143.077 270.002 143.077C273.525 143.077 276.11 144.817 276.491 144.385C276.677 144.189 276.265 143.427 275.132 142.613C273.617 141.573 271.82 141.02 269.982 141.027C268.13 141.024 266.326 141.612 264.832 142.706C263.761 143.54 263.39 144.313 263.596 144.498Z" fill="#263238"/>
<path d="M252.606 163.903C252.606 163.697 250.433 163.327 246.879 162.873C245.983 162.781 245.128 162.595 244.974 161.988C244.899 161.057 245.111 160.126 245.581 159.32L248.239 152.47C251.936 142.716 254.604 134.693 254.213 134.548C253.821 134.404 250.505 142.191 246.807 151.945C245.921 154.345 245.066 156.642 244.263 158.836C243.698 159.922 243.53 161.172 243.789 162.369C243.921 162.685 244.124 162.966 244.381 163.193C244.637 163.42 244.942 163.585 245.272 163.677C245.769 163.815 246.281 163.888 246.797 163.893C250.371 164.089 252.585 164.099 252.606 163.903Z" fill="#263238"/>
<path d="M254.089 172.39C254.762 171.548 255.637 170.889 256.633 170.477C257.629 170.064 258.714 169.911 259.785 170.032C260.562 170.103 261.316 170.33 262.003 170.7C262.69 171.07 263.295 171.575 263.781 172.184C264.254 172.769 264.535 173.486 264.585 174.236C264.635 174.987 264.451 175.734 264.06 176.377C263.112 177.716 261.124 178.025 259.445 177.551C257.782 176.96 256.253 176.046 254.944 174.862C254.541 174.585 254.192 174.236 253.914 173.832C253.783 173.637 253.714 173.408 253.714 173.173C253.714 172.939 253.783 172.709 253.914 172.514" fill="#EB996E"/>
<path d="M262.968 166.334C262.401 166.334 262.391 170.124 259.115 172.844C255.84 175.563 251.772 175.141 251.741 175.676C251.689 175.913 252.647 176.418 254.367 176.459C256.615 176.496 258.804 175.738 260.547 174.317C262.212 172.952 263.283 170.995 263.534 168.858C263.658 167.261 263.235 166.313 262.968 166.334Z" fill="#263238"/>
<path d="M232.047 126.916C232.675 127.72 235.137 126.916 238.021 126.854C240.905 126.793 243.408 127.39 243.975 126.545C244.222 126.144 243.841 125.34 242.759 124.588C241.319 123.654 239.623 123.193 237.908 123.27C236.194 123.303 234.532 123.864 233.149 124.877C232.119 125.701 231.779 126.525 232.047 126.916Z" fill="#263238"/>
<path d="M303.92 148.402C304.291 148.216 317.588 142.335 317.743 157.62C317.897 172.905 302.52 169.908 302.489 169.476C302.458 169.043 303.92 148.402 303.92 148.402Z" fill="#FFBE9D"/>
<path d="M307.103 163.636C307.165 163.584 307.371 163.821 307.824 164.017C308.461 164.275 309.174 164.275 309.812 164.017C311.419 163.409 312.758 160.834 312.799 158.074C312.823 156.764 312.556 155.466 312.016 154.273C311.869 153.787 311.603 153.344 311.244 152.985C310.885 152.626 310.442 152.36 309.956 152.213C309.651 152.134 309.328 152.165 309.043 152.3C308.759 152.436 308.531 152.668 308.401 152.954C308.195 153.387 308.298 153.686 308.215 153.717C308.133 153.748 307.886 153.459 307.999 152.831C308.081 152.449 308.292 152.107 308.597 151.863C309.015 151.548 309.538 151.404 310.059 151.461C310.688 151.578 311.277 151.855 311.769 152.264C312.262 152.673 312.641 153.202 312.871 153.799C313.533 155.117 313.862 156.578 313.829 158.053C313.767 161.143 312.222 164.037 310.018 164.696C309.608 164.82 309.177 164.85 308.754 164.784C308.331 164.718 307.929 164.558 307.577 164.315C307.134 163.996 307.052 163.666 307.103 163.636Z" fill="#EB996E"/>
<path d="M247.528 86.0974C239.02 90.4955 235.518 107.892 239.041 116.791C242.563 125.69 251.401 131.726 260.763 133.776C270.126 135.826 279.901 134.384 289.13 131.819C289.768 137.999 293.486 144.385 299.502 146.023C307.463 148.186 315.497 140.873 317.269 132.828C319.041 124.784 316.383 116.462 313.757 108.634" fill="#263238"/>
<path d="M314.962 141.563C314.962 141.563 314.581 142.006 313.788 142.675C312.656 143.62 311.477 144.507 310.255 145.332C308.434 146.591 306.429 147.561 304.312 148.206C301.668 149.043 298.825 149.003 296.206 148.093C293.614 147.054 291.44 145.185 290.026 142.778C288.893 140.864 288.144 138.747 287.821 136.547C287.603 135.081 287.523 133.598 287.585 132.118C287.569 131.572 287.635 131.027 287.78 130.501C287.955 130.501 287.78 132.828 288.439 136.433C288.831 138.53 289.603 140.537 290.716 142.356C292.062 144.566 294.079 146.287 296.473 147.269C298.922 148.11 301.573 148.164 304.054 147.423C306.112 146.832 308.075 145.952 309.884 144.807C313.046 142.85 314.869 141.429 314.962 141.563Z" fill="#263238"/>
<path d="M303.694 218.04C306.382 213.982 313.056 210.675 317.918 210.294C322.78 209.913 327.682 210.14 332.492 209.388C348.509 206.895 355.564 196.358 353.669 180.96C352.917 174.78 350.497 170.66 340.701 158.568C332.328 148.268 328.033 135.764 326.683 123.27L319.926 142.84L322.646 165.273L316.146 178.663L305.29 183.175L303.694 218.04Z" fill="#263238"/>
<path d="M352.855 216.722C351.444 212.849 349.024 209.439 346.593 206.113C344.011 202.898 341.819 199.388 340.063 195.658L324.613 205.175C324.994 202.747 324.735 200.262 323.861 197.965C322.316 193.845 319.319 190.477 316.383 187.212L305.857 169.97C301.603 181.506 297.38 185.111 288.831 190.982C280.282 196.853 271.599 200.509 264.554 212.952C262.607 216.392 258.518 234.345 260.836 236.436C260.836 236.436 281.003 224.148 284.587 222.922C293.383 219.904 302.643 218.586 311.429 215.712C319.78 217.198 327.46 221.252 333.399 227.31C336.169 230.163 338.847 233.624 342.761 234.365C346.675 235.107 351.001 232.46 352.773 228.742C354.545 225.023 354.267 220.646 352.855 216.722Z" fill="#263238"/>
<path d="M346.954 206.401C346.658 205.87 346.334 205.354 345.985 204.856C344.931 203.468 343.615 202.299 342.113 201.416C339.721 200.039 337.181 198.937 334.542 198.13C332.9 197.581 331.288 196.949 329.711 196.235C327.915 195.444 326.273 194.342 324.86 192.98C323.334 191.432 322.235 189.516 321.667 187.418C321.098 185.151 320.941 182.799 321.204 180.476C321.616 175.625 323.737 170.845 325.324 165.757C326.205 163.166 326.725 160.466 326.869 157.734C326.963 154.9 326.324 152.091 325.015 149.576C324.339 148.3 323.414 147.172 322.295 146.259C321.132 145.355 319.786 144.716 318.351 144.385C316.909 144.014 315.405 143.808 313.891 143.478C312.327 143.209 310.841 142.605 309.534 141.707C308.278 140.724 307.292 139.437 306.67 137.968C305.991 136.567 305.496 135.125 304.878 133.755C303.7 131.053 301.652 128.823 299.059 127.421C296.547 126.073 293.804 125.21 290.973 124.877C288.238 124.572 285.483 124.472 282.733 124.578C280.045 124.63 277.408 124.712 274.843 124.578C267.829 124.216 261.147 121.481 255.892 116.822C253.133 114.363 250.853 111.416 249.166 108.129C247.899 105.654 246.967 103.022 246.395 100.301C246.033 98.5864 245.833 96.8414 245.798 95.0892C245.764 94.4786 245.764 93.8665 245.798 93.2558C245.798 93.2558 245.798 93.4103 245.798 93.7193C245.798 94.0283 245.798 94.4815 245.798 95.0789C245.884 96.8124 246.118 98.5353 246.498 100.229C247.1 102.92 248.052 105.521 249.33 107.964C251.021 111.199 253.294 114.093 256.036 116.503C259.405 119.414 263.365 121.561 267.644 122.796C269.989 123.492 272.41 123.904 274.854 124.022C277.388 124.166 280.004 124.084 282.702 124.022C285.469 123.906 288.241 123.999 290.994 124.3C293.879 124.639 296.675 125.52 299.234 126.896C300.552 127.625 301.75 128.553 302.787 129.646C303.832 130.766 304.675 132.059 305.28 133.467C305.918 134.857 306.413 136.299 307.072 137.669C307.683 139.079 308.648 140.307 309.874 141.233C311.112 142.082 312.516 142.657 313.994 142.922C315.477 143.242 316.991 143.448 318.484 143.829C319.984 144.184 321.389 144.859 322.604 145.806C323.781 146.762 324.752 147.946 325.457 149.288C326.804 151.893 327.453 154.803 327.342 157.734C327.191 160.513 326.657 163.258 325.756 165.891C324.129 171.041 322.007 175.748 321.636 180.507C321.375 182.781 321.525 185.084 322.079 187.305C322.622 189.345 323.687 191.209 325.169 192.712C326.546 194.051 328.146 195.138 329.897 195.926C331.545 196.709 333.162 197.296 334.686 197.852C337.336 198.685 339.88 199.822 342.267 201.241C343.781 202.149 345.092 203.359 346.119 204.794C346.459 205.295 346.739 205.835 346.954 206.401Z" fill="#455A64"/>
<path d="M341.083 195.462C341.181 195.366 341.292 195.283 341.412 195.215C341.639 195.05 341.999 194.865 342.442 194.525C343.681 193.585 344.759 192.451 345.635 191.167C347.019 189.132 347.975 186.837 348.447 184.421C349.097 181.228 349.02 177.929 348.22 174.77C347.212 170.931 345.565 167.289 343.349 163.996C340.813 160.225 338.062 156.604 335.109 153.15C331.817 149.333 328.922 145.192 326.467 140.79C323.943 136.114 322.965 130.676 320.884 125.577C319.896 123.052 318.427 120.744 316.558 118.779C314.694 116.913 312.524 115.38 310.141 114.247C305.476 111.94 300.47 110.972 295.773 110.045C291.279 109.257 286.843 108.166 282.496 106.78C278.705 105.559 275.053 103.943 271.599 101.959C266.566 99.0995 262.248 95.1338 258.971 90.3615C258.096 89.0505 257.325 87.6729 256.664 86.2416C256.437 85.7575 256.293 85.3661 256.19 85.1189C256.131 84.9926 256.083 84.8617 256.046 84.7275C256.123 84.8445 256.188 84.9687 256.242 85.0983C256.365 85.3352 256.52 85.7163 256.767 86.1901C257.461 87.5853 258.256 88.9279 259.146 90.207C262.47 94.875 266.791 98.7451 271.795 101.537C275.23 103.489 278.862 105.074 282.63 106.265C286.967 107.622 291.388 108.692 295.866 109.468C300.573 110.385 305.62 111.343 310.378 113.681C312.809 114.845 315.026 116.408 316.939 118.305C318.851 120.325 320.358 122.692 321.379 125.278C323.49 130.428 324.469 135.856 326.93 140.45C329.362 144.847 332.229 148.988 335.49 152.81C338.449 156.284 341.2 159.93 343.73 163.728C345.944 167.055 347.581 170.733 348.571 174.605C349.36 177.82 349.412 181.172 348.725 184.411C348.219 186.856 347.22 189.172 345.79 191.219C344.876 192.501 343.76 193.625 342.483 194.546C342.036 194.881 341.568 195.187 341.083 195.462Z" fill="#455A64"/>
<path d="M267.129 224.57C267.071 224.306 267.04 224.037 267.036 223.767C266.986 222.995 266.986 222.221 267.036 221.449C267.177 218.591 267.8 215.777 268.88 213.127C270.458 209.185 272.8 205.593 275.771 202.559C279.416 198.866 283.622 195.773 288.233 193.392C293.095 190.786 298.07 189.076 302.221 186.831C304.201 185.798 306.063 184.551 307.772 183.113C309.247 181.848 310.516 180.36 311.532 178.704C313.074 176.335 313.874 173.559 313.829 170.732C313.753 169.689 313.58 168.654 313.314 167.642C313.435 167.883 313.531 168.135 313.602 168.394C313.834 169.137 313.979 169.904 314.035 170.681C314.158 173.566 313.396 176.419 311.851 178.859C310.836 180.564 309.561 182.1 308.071 183.411C306.346 184.885 304.463 186.163 302.458 187.222C298.266 189.519 293.301 191.239 288.491 193.825C283.93 196.18 279.76 199.227 276.131 202.858C273.189 205.84 270.849 209.362 269.24 213.23C268.151 215.838 267.48 218.601 267.252 221.418C267.189 222.186 267.164 222.956 267.18 223.726C267.188 224.008 267.171 224.291 267.129 224.57Z" fill="#455A64"/>
<path d="M316.517 104.081C316.455 104.081 316.28 103.247 315.611 101.825C314.641 99.8474 313.269 98.0934 311.584 96.6754C309.08 94.5736 306.159 93.0256 303.014 92.1331C299.14 91.1079 295.177 90.4527 291.179 90.1762C283.865 89.6149 276.637 88.2329 269.632 86.0562C266.954 85.2116 264.822 84.4082 263.369 83.8108C262.638 83.5224 262.082 83.2752 261.701 83.1104C261.504 83.037 261.318 82.9401 261.145 82.822C261.351 82.857 261.552 82.9193 261.742 83.0074L263.441 83.6151C264.914 84.1507 267.057 84.9026 269.745 85.6751C276.749 87.7453 283.95 89.0812 291.231 89.6612C295.265 89.9492 299.261 90.6393 303.158 91.7211C306.355 92.6561 309.313 94.2686 311.831 96.4488C313.529 97.9204 314.886 99.7447 315.807 101.795C316.046 102.352 316.243 102.927 316.394 103.515C316.452 103.699 316.494 103.889 316.517 104.081Z" fill="#455A64"/>
<path d="M290.602 218.668L178.034 280.138C177.253 280.565 176.39 280.822 175.502 280.891C174.614 280.96 173.722 280.841 172.884 280.54L95.6344 253.08C94.7727 249.796 94.1088 246.463 93.6465 243.1C93.2963 238.784 95.0885 231.626 95.0885 231.626C89.7222 232.213 88.9085 238.939 88.9085 238.939C88.9085 238.939 77.2283 238.321 74.7666 241.4C73.3397 243.417 72.2701 245.664 71.6045 248.044C71.2594 249.189 71.2594 250.411 71.6045 251.556C72.1504 253.42 72.6963 256.562 71.0586 258.611C68.5969 261.701 64.8787 265.379 66.1353 270.292C67.3919 275.205 72.377 284.403 80.5552 284.341C86.8176 284.341 117.501 311.914 145.105 328.826C156.268 335.645 169.478 338.311 182.412 336.356C206.102 332.802 265.244 307.516 281.889 299.348C305.888 287.668 290.602 218.668 290.602 218.668Z" fill="#FFBE9D"/>
<path d="M92.1942 256.253C92.256 256.315 91.4629 257.2 90.3402 258.735C87.4033 262.743 85.3688 267.339 84.3766 272.207C83.9955 274.072 83.8822 275.297 83.7895 275.246C83.7475 274.969 83.7475 274.688 83.7895 274.412C83.8272 273.653 83.9063 272.896 84.0264 272.146C84.4288 269.662 85.1452 267.239 86.1585 264.936C87.1763 262.637 88.4885 260.48 90.0621 258.519C90.5171 257.921 91.0018 257.347 91.5144 256.799C91.947 256.428 92.1633 256.232 92.1942 256.253Z" fill="#EB996E"/>
<path d="M264.605 227.907C264.605 227.907 294.691 209.573 307.082 209.1C328.372 208.286 344.832 221.315 347.077 244.902C348.571 260.61 338.549 303.53 338.188 322.245C340.032 323.955 340.403 326.241 339.744 328.94L320.174 313.552C315.024 310.595 304.312 302.046 302.066 300.45C302.066 300.45 284.33 306.115 266.737 311.553C253.42 315.673 211.045 331.515 202.95 334.388L180.64 277.821L264.605 227.907Z" fill="#C447FF"/>
<path d="M320.174 299.307C318.759 298.562 317.205 298.12 315.611 298.009C312.521 297.741 308.092 298.668 302.808 300.275C297.524 301.882 291.251 303.942 284.319 306.29C277.388 308.638 269.776 311.265 261.793 314.046L220.985 328.466L208.625 332.854L205.257 334.028L204.371 334.327L204.072 334.409C204.162 334.352 204.259 334.306 204.361 334.275L205.216 333.925L208.553 332.658L220.851 328.116C231.264 324.315 245.664 319.134 261.618 313.562C269.601 310.781 277.213 308.154 284.165 305.837C291.117 303.519 297.38 301.47 302.705 299.935C304.034 299.523 305.311 299.193 306.526 298.905C307.742 298.617 308.895 298.359 309.977 298.174C311.838 297.811 313.74 297.696 315.631 297.834C316.827 297.933 317.996 298.232 319.092 298.72C319.471 298.879 319.834 299.076 320.174 299.307Z" fill="#263238"/>
<path d="M333.409 310.977C333.997 312.953 334.684 314.899 335.469 316.806C336.405 318.638 337.436 320.419 338.559 322.142C335.532 319.177 333.699 315.204 333.409 310.977Z" fill="#263238"/>
<g opacity="0.3">
<path opacity="0.3" d="M320.689 302.016C320.806 301.583 320.802 301.126 320.676 300.695C320.551 300.265 320.309 299.877 319.978 299.574C319.358 298.967 318.58 298.545 317.733 298.359C313.386 297.257 307.175 299.142 302.2 300.563C307.288 304.292 312.304 308.381 317.794 312.089L319.391 313.119C319.603 312.905 319.766 312.648 319.871 312.366C319.976 312.083 320.019 311.782 319.999 311.481C319.721 310.273 319.303 309.101 318.752 307.99C318.482 307.431 318.342 306.818 318.342 306.197C318.342 305.577 318.482 304.964 318.752 304.405C319.298 303.478 320.349 302.963 320.689 302.016Z" fill="black"/>
</g>
<path d="M225.249 326.241C225.198 326.241 219.358 312.995 212.22 296.608C205.082 280.221 199.324 266.903 199.386 266.882C199.448 266.862 205.267 280.128 212.415 296.515C219.564 312.903 225.301 326.22 225.249 326.241Z" fill="#FAFAFA"/>
<path d="M251.39 316.127L251.092 315.488L250.268 313.634L247.25 306.826C244.685 301.089 241.07 293.199 237.012 284.485C232.953 275.771 229.359 267.871 226.825 262.114C225.558 259.24 224.549 256.902 223.869 255.274C223.55 254.502 223.282 253.884 223.086 253.41C222.89 252.936 222.829 252.751 222.829 252.751L223.127 253.389C223.333 253.863 223.611 254.481 223.941 255.243L226.969 262.052C229.534 267.799 233.149 275.689 237.207 284.403C241.266 293.116 244.86 301.006 247.394 306.764C248.661 309.648 249.67 311.986 250.35 313.603C250.669 314.376 250.937 314.994 251.133 315.478C251.329 315.962 251.39 316.127 251.39 316.127Z" fill="#FAFAFA"/>
<path d="M277.82 308.02C277.82 308.02 277.697 307.784 277.491 307.32C277.285 306.857 276.976 306.136 276.605 305.26L273.319 297.896C270.517 291.613 266.583 282.981 262.061 273.516C257.539 264.05 253.296 255.563 250.175 249.445L246.446 242.235C246.024 241.411 245.684 240.762 245.416 240.267C245.149 239.773 245.066 239.577 245.066 239.577C245.066 239.577 245.21 239.804 245.447 240.247C245.684 240.69 246.065 241.38 246.477 242.193C247.394 243.883 248.682 246.313 250.268 249.403C253.43 255.511 257.694 263.988 262.216 273.454C266.737 282.919 270.651 291.571 273.412 297.865C274.792 301.006 275.894 303.561 276.636 305.332C276.996 306.177 277.274 306.857 277.491 307.392C277.707 307.928 277.82 308.02 277.82 308.02Z" fill="#FAFAFA"/>
<path d="M297.431 301.13C297.38 301.13 290.458 284.938 281.981 264.925C273.504 244.913 266.614 228.659 266.696 228.628C266.779 228.597 273.68 244.82 282.146 264.833C290.613 284.845 297.514 301.099 297.431 301.13Z" fill="#FAFAFA"/>
<path d="M319.659 297.092C319.659 297.092 319.587 296.804 319.484 296.237L319.02 293.776C318.824 292.746 318.577 291.407 318.258 289.892C317.939 288.378 317.609 286.648 317.156 284.742C316.321 280.942 315.188 276.451 313.808 271.507C312.428 266.563 310.718 261.207 308.751 255.573C306.784 249.939 304.631 244.737 302.571 240.01C300.511 235.282 298.564 231.1 296.824 227.65C295.979 225.899 295.145 224.354 294.434 222.974C293.723 221.593 293.105 220.429 292.58 219.482L291.385 217.278C291.117 216.773 290.984 216.505 290.984 216.505C290.984 216.505 293.445 220.625 296.957 227.578C298.719 231.049 300.696 235.241 302.756 239.938C304.816 244.634 306.876 249.908 308.936 255.501C310.996 261.094 312.593 266.501 313.994 271.445C315.394 276.389 316.476 280.901 317.29 284.712C318.958 292.334 319.659 297.092 319.659 297.092Z" fill="#FAFAFA"/>
<path d="M328.774 214.013C328.774 214.013 328.857 214.28 329.001 214.806L329.619 217.082C330.175 219.06 330.844 221.954 331.586 225.549C332.328 229.143 333.069 233.459 333.564 238.29C333.883 240.7 334.006 243.244 334.212 245.87C334.418 248.497 334.449 251.247 334.398 254.049C334.414 263.629 333.132 273.168 330.587 282.404C330.34 283.29 330.093 284.125 329.866 284.928L329.104 287.132C328.63 288.512 328.218 289.697 327.796 290.634C327.373 291.571 327.116 292.272 326.889 292.818C326.663 293.364 326.549 293.57 326.549 293.57C326.549 293.57 326.642 293.302 326.848 292.797C327.054 292.292 327.353 291.52 327.723 290.603C328.094 289.687 328.527 288.471 328.99 287.091C329.227 286.401 329.475 285.659 329.732 284.887L330.443 282.363C332.937 273.132 334.195 263.611 334.182 254.049C334.182 251.247 334.099 248.518 334.006 245.891C333.914 243.265 333.677 240.741 333.368 238.31C332.884 233.48 332.111 229.185 331.442 225.58C330.772 221.975 330.072 219.091 329.536 217.103C329.299 216.145 329.104 215.383 328.96 214.816L328.774 214.013Z" fill="#FAFAFA"/>
<path d="M339.651 306.568C338.806 307.435 337.87 308.209 336.86 308.875C334.421 310.505 331.683 311.636 328.805 312.202C325.93 312.798 322.968 312.829 320.081 312.295C318.888 312.086 317.724 311.74 316.61 311.265L316.857 311.327L317.547 311.543C317.906 311.661 318.27 311.761 318.639 311.842C319.124 311.972 319.616 312.075 320.112 312.151C322.98 312.639 325.914 312.591 328.764 312.007C331.615 311.439 334.334 310.338 336.777 308.762C337.517 308.283 338.226 307.756 338.899 307.186L339.455 306.723C339.579 306.609 339.651 306.558 339.651 306.568Z" fill="#FAFAFA"/>
<path d="M335.716 321.091C335.245 321.664 334.635 322.107 333.945 322.379C333.282 322.717 332.546 322.887 331.802 322.873C332.5 322.678 333.188 322.448 333.862 322.183C334.503 321.859 335.122 321.494 335.716 321.091Z" fill="#FAFAFA"/>
<path d="M345.357 268.911C345.357 268.911 345.357 269.066 345.295 269.354C345.233 269.643 345.161 270.127 345.069 270.621C344.976 271.116 344.842 271.868 344.698 272.619C344.554 273.371 344.276 274.257 344.028 275.225C342.628 280.253 340.412 285.017 337.467 289.326C335.812 291.667 333.939 293.846 331.874 295.836C330.164 297.437 328.298 298.862 326.302 300.09C324.952 300.918 323.492 301.553 321.966 301.974C321.554 302.095 321.128 302.164 320.699 302.18H320.256L320.699 302.108C321.122 302.069 321.539 301.986 321.945 301.861C323.451 301.412 324.889 300.761 326.22 299.925C328.194 298.686 330.043 297.258 331.74 295.661C333.784 293.67 335.642 291.498 337.292 289.172C340.204 284.902 342.422 280.198 343.864 275.236C344.121 274.278 344.399 273.423 344.564 272.65C344.729 271.878 344.852 271.229 344.966 270.652L345.233 269.396C345.316 269.056 345.357 268.911 345.357 268.911Z" fill="#FAFAFA"/>
<path d="M123.64 167.086L202.569 189.396L241.245 217.7L250.515 236.806L251.545 252.535C251.55 253.374 251.273 254.191 250.759 254.855C250.244 255.519 249.522 255.99 248.708 256.195C247.893 256.399 247.034 256.324 246.267 255.981C245.5 255.639 244.871 255.049 244.479 254.306C243.449 252.421 242.697 249.548 242.419 245.201L241.389 238.259L235.714 229.627C235.714 229.627 236.219 250.124 236.167 254.687C236.167 259.703 234.107 260.919 231.8 260.919C230.203 260.919 226.248 262.319 226.145 249.96C225.991 230.596 222.921 229.257 222.921 229.257C222.921 229.257 222.324 247.426 221.366 255.099C220.738 260.404 213.476 259.363 213.126 254.389C212.807 249.651 212.209 236.312 212.209 236.312C211.962 231.224 211.179 227.567 209.325 225.641C209.325 225.641 205.895 248.147 204.938 251.556C203.279 257.489 198.17 253.544 198.17 250.753C198.17 247.961 197.367 225.24 197.367 225.24L183.019 213.281L116.44 206.504L123.64 167.086Z" fill="#FFBE9D"/>
<path d="M138.493 208.749C137.91 208.788 137.325 208.788 136.742 208.749L132.004 208.43C126.771 208.141 121.558 207.564 116.389 206.7C113.547 206.173 110.751 205.425 108.025 204.465C106.779 203.98 105.584 203.538 104.523 203.002C103.462 202.466 102.463 201.972 101.598 201.488C100.733 201.004 99.9707 200.458 99.2909 200.046C98.7136 199.678 98.1566 199.279 97.6223 198.851C97.1439 198.521 96.6958 198.148 96.2833 197.739C96.7963 198.013 97.2856 198.33 97.7459 198.686C98.2094 198.995 98.7759 199.407 99.4557 199.799C100.135 200.19 100.877 200.726 101.783 201.158C102.69 201.591 103.627 202.188 104.709 202.6C105.79 203.012 106.954 203.538 108.19 204.001C110.902 204.922 113.676 205.648 116.492 206.174C122.497 207.276 128.038 207.647 132.034 208.049C134.033 208.245 135.65 208.399 136.762 208.543C137.344 208.559 137.923 208.628 138.493 208.749Z" fill="#EB996E"/>
<path d="M113.144 206.288C112.235 206.629 111.281 206.834 110.312 206.895C105.625 207.428 100.882 206.647 96.6128 204.64C95.7162 204.265 94.877 203.766 94.1202 203.156C94.1202 203.074 95.1502 203.61 96.7673 204.289C98.897 205.167 101.119 205.803 103.39 206.185C105.663 206.558 107.972 206.668 110.271 206.514C112.052 206.401 113.144 206.226 113.144 206.288Z" fill="#EB996E"/>
<path d="M196.955 225.188C195.968 224.572 195.028 223.884 194.143 223.128C192.444 221.789 190.126 219.925 187.592 217.803C186.36 216.826 185.277 215.674 184.379 214.383C183.639 213.305 183.182 212.059 183.05 210.758C182.958 209.88 183.078 208.994 183.4 208.173C183.499 207.866 183.669 207.588 183.895 207.359C183.451 208.415 183.291 209.569 183.431 210.706C183.602 211.931 184.065 213.097 184.781 214.105C185.685 215.335 186.744 216.443 187.932 217.401C190.456 219.461 192.753 221.429 194.38 222.84C195.3 223.553 196.161 224.338 196.955 225.188Z" fill="#EB996E"/>
<path d="M212.941 214.013C213.245 214.058 213.541 214.152 213.816 214.291C214.372 214.497 215.155 214.826 216.103 215.321C217.226 215.857 218.283 216.52 219.254 217.298C220.468 218.26 221.427 219.505 222.046 220.924C222.63 222.345 222.958 223.859 223.014 225.394C223.078 226.626 223.078 227.86 223.014 229.092C222.997 230.223 222.905 231.352 222.736 232.47C222.596 231.346 222.561 230.212 222.633 229.082C222.633 227.022 222.818 224.035 221.603 221.14C221.014 219.798 220.118 218.612 218.987 217.679C218.055 216.895 217.047 216.205 215.979 215.619C214.084 214.631 212.91 214.095 212.941 214.013Z" fill="#EB996E"/>
<path d="M235.868 238.485C235.585 237.275 235.481 236.029 235.559 234.788C235.559 233.644 235.559 232.285 235.559 230.771C235.559 229.257 235.673 227.588 235.559 225.878C235.483 224.268 235.11 222.686 234.457 221.212C233.91 220.027 233.039 219.02 231.944 218.308C231.202 217.831 230.359 217.535 229.482 217.443C228.864 217.443 228.514 217.443 228.504 217.443C228.829 217.306 229.182 217.249 229.534 217.278C230.468 217.287 231.382 217.546 232.181 218.03C233.38 218.735 234.341 219.782 234.941 221.037C235.655 222.556 236.061 224.202 236.136 225.878C236.219 227.525 236.219 229.175 236.136 230.822C236.136 232.295 236.033 233.644 235.992 234.839C235.951 236.034 235.941 236.899 235.941 237.538C235.945 237.855 235.921 238.172 235.868 238.485Z" fill="#EB996E"/>
<path d="M241.245 217.669C241.171 217.637 241.102 217.595 241.039 217.546L240.472 217.154L238.289 215.609L230.183 209.779L202.373 189.571H202.455C197.305 188.036 191.805 186.481 186.089 184.823C168.816 179.951 153.129 175.748 141.799 172.463C136.144 170.856 131.592 169.486 128.409 168.538L124.794 167.405L123.867 167.107C123.756 167.078 123.648 167.037 123.547 166.983C123.66 166.991 123.771 167.015 123.877 167.055L124.824 167.302L128.471 168.332L141.861 172.102C153.191 175.254 168.898 179.405 186.15 184.277C191.867 185.894 197.388 187.501 202.517 189.046H202.569L230.224 209.398L238.392 215.496L240.524 217.103L241.07 217.535C241.133 217.574 241.191 217.619 241.245 217.669Z" fill="#EB996E"/>
<path d="M458.255 458.379C458.255 458.524 356.285 458.647 230.626 458.647C104.966 458.647 2.87286 458.575 2.87286 458.379C2.87286 458.184 104.843 458.112 230.574 458.112C356.306 458.112 458.255 458.225 458.255 458.379Z" fill="#263238"/>
</svg>
