<svg width="420" height="370" viewBox="0 0 420 370" fill="none" xmlns="http://www.w3.org/2000/svg">
<path d="M0 50C0 22.3858 22.3858 0 50 0H200C255.228 0 300 44.7715 300 100C300 155.228 255.228 200 200 200H0V50Z" fill="#C447FF"/>
<path d="M0 170H200C255.228 170 300 214.772 300 270C300 325.228 255.228 370 200 370H50C22.3858 370 0 347.614 0 320V170Z" fill="#C447FF"/>
<path d="M30 65C30 53.9543 38.9543 45 50 45H200C238.66 45 270 76.3401 270 115C270 153.66 238.66 185 200 185H30V65Z" fill="#B43AEE"/>
<path d="M60 100C60 94.4772 64.4772 90 70 90H192.5C218.734 90 240 111.266 240 137.5C240 163.734 218.734 185 192.5 185H60V100Z" fill="#A438D7"/>
<path d="M89 145C89 139.477 93.4772 135 99 135H185C198.807 135 210 146.193 210 160C210 173.807 198.807 185 185 185H89V145Z" fill="#9C31CE"/>
<path d="M30 305C30 316.046 38.9543 325 50 325H200C238.66 325 270 293.66 270 255C270 216.34 238.66 185 200 185H30V305Z" fill="#B43AEE"/>
<path d="M60 270C60 275.523 64.4772 280 70 280H192.5C218.734 280 240 258.734 240 232.5C240 206.266 218.734 185 192.5 185H60V270Z" fill="#A438D7"/>
<path d="M89 225C89 230.523 93.4772 235 99 235H185C198.807 235 210 223.807 210 210C210 196.193 198.807 185 185 185H89V225Z" fill="#9C31CE"/>
<circle cx="375" cy="325" r="45" fill="black"/>
</svg>
