<svg width="26" height="15" viewBox="0 0 26 15" fill="none" xmlns="http://www.w3.org/2000/svg">
<path d="M2.57661 5.24533C2.9375 4.74755 3.42905 4.34311 4.05128 4.032C4.68594 3.70844 5.38905 3.54667 6.16061 3.54667C7.06906 3.54667 7.89039 3.76444 8.62461 4.2C9.35883 4.63555 9.9375 5.25778 10.3606 6.06667C10.7837 6.86311 10.9953 7.77778 10.9953 8.81067C10.9953 9.84356 10.7837 10.7707 10.3606 11.592C9.9375 12.4009 9.35261 13.0356 8.60594 13.496C7.87172 13.944 7.05661 14.168 6.16061 14.168C5.36417 14.168 4.65483 14.0124 4.03261 13.7013C3.42283 13.3902 2.9375 12.992 2.57661 12.5067V14H0.44861V0.186666H2.57661V5.24533ZM8.82994 8.81067C8.82994 8.10133 8.68061 7.49155 8.38194 6.98133C8.09572 6.45867 7.70994 6.06667 7.22461 5.80533C6.75172 5.53155 6.2415 5.39467 5.69394 5.39467C5.15883 5.39467 4.64861 5.53155 4.16328 5.80533C3.69039 6.07911 3.30461 6.47733 3.00594 7C2.71972 7.52267 2.57661 8.13867 2.57661 8.848C2.57661 9.55733 2.71972 10.1796 3.00594 10.7147C3.30461 11.2373 3.69039 11.6356 4.16328 11.9093C4.64861 12.1831 5.15883 12.32 5.69394 12.32C6.2415 12.32 6.75172 12.1831 7.22461 11.9093C7.70994 11.6231 8.09572 11.2124 8.38194 10.6773C8.68061 10.1422 8.82994 9.52 8.82994 8.81067Z" fill="#C447FF"/>
<path d="M13.9583 14.1307C13.5725 14.1307 13.249 14 12.9877 13.7387C12.7263 13.4773 12.5957 13.1538 12.5957 12.768C12.5957 12.3822 12.7263 12.0587 12.9877 11.7973C13.249 11.536 13.5725 11.4053 13.9583 11.4053C14.3317 11.4053 14.649 11.536 14.9103 11.7973C15.1717 12.0587 15.3023 12.3822 15.3023 12.768C15.3023 13.1538 15.1717 13.4773 14.9103 13.7387C14.649 14 14.3317 14.1307 13.9583 14.1307ZM21.3356 14.168C20.5267 14.168 19.7987 14.0249 19.1516 13.7387C18.5169 13.44 18.0129 13.0418 17.6396 12.544C17.2663 12.0338 17.0671 11.4676 17.0423 10.8453H19.2449C19.2823 11.2809 19.4876 11.648 19.8609 11.9467C20.2467 12.2329 20.7258 12.376 21.2983 12.376C21.8956 12.376 22.356 12.264 22.6796 12.04C23.0156 11.8036 23.1836 11.5049 23.1836 11.144C23.1836 10.7582 22.9969 10.472 22.6236 10.2853C22.2627 10.0987 21.684 9.89333 20.8876 9.66933C20.116 9.45778 19.4876 9.25244 19.0023 9.05333C18.5169 8.85422 18.0938 8.54933 17.7329 8.13867C17.3845 7.728 17.2103 7.18667 17.2103 6.51467C17.2103 5.96711 17.372 5.46933 17.6956 5.02133C18.0191 4.56089 18.4796 4.2 19.0769 3.93867C19.6867 3.67733 20.3836 3.54667 21.1676 3.54667C22.3374 3.54667 23.2769 3.84533 23.9863 4.44267C24.708 5.02755 25.0938 5.83022 25.1436 6.85067H23.0156C22.9783 6.39022 22.7916 6.02311 22.4556 5.74933C22.1196 5.47555 21.6654 5.33867 21.0929 5.33867C20.5329 5.33867 20.1036 5.44444 19.8049 5.656C19.5063 5.86755 19.3569 6.14755 19.3569 6.496C19.3569 6.76978 19.4565 7 19.6556 7.18667C19.8547 7.37333 20.0974 7.52267 20.3836 7.63467C20.6698 7.73422 21.0929 7.86489 21.6529 8.02667C22.3996 8.22578 23.0094 8.43111 23.4823 8.64267C23.9676 8.84178 24.3845 9.14044 24.7329 9.53867C25.0814 9.93689 25.2618 10.4658 25.2743 11.1253C25.2743 11.7102 25.1125 12.2329 24.7889 12.6933C24.4654 13.1538 24.0049 13.5147 23.4076 13.776C22.8227 14.0373 22.132 14.168 21.3356 14.168Z" fill="#423F3F"/>
</svg>
