<svg width="900" height="900" viewBox="0 0 900 900" fill="none" xmlns="http://www.w3.org/2000/svg">
<rect width="900" height="900" fill="white"/>
<path d="M240 315C240 287.386 262.386 265 290 265H440C495.228 265 540 309.772 540 365C540 420.228 495.228 465 440 465H240V315Z" fill="#C447FF"/>
<path d="M240 435H440C495.228 435 540 479.772 540 535C540 590.228 495.228 635 440 635H290C262.386 635 240 612.614 240 585V435Z" fill="#C447FF"/>
<path d="M270 330C270 318.954 278.954 310 290 310H440C478.66 310 510 341.34 510 380C510 418.66 478.66 450 440 450H270V330Z" fill="#B43AEE"/>
<path d="M300 365C300 359.477 304.477 355 310 355H432.5C458.734 355 480 376.266 480 402.5C480 428.734 458.734 450 432.5 450H300V365Z" fill="#A438D7"/>
<path d="M329 410C329 404.477 333.477 400 339 400H425C438.807 400 450 411.193 450 425C450 438.807 438.807 450 425 450H329V410Z" fill="#9C31CE"/>
<path d="M270 570C270 581.046 278.954 590 290 590H440C478.66 590 510 558.66 510 520C510 481.34 478.66 450 440 450H270V570Z" fill="#B43AEE"/>
<path d="M300 535C300 540.523 304.477 545 310 545H432.5C458.734 545 480 523.734 480 497.5C480 471.266 458.734 450 432.5 450H300V535Z" fill="#A438D7"/>
<path d="M329 490C329 495.523 333.477 500 339 500H425C438.807 500 450 488.807 450 475C450 461.193 438.807 450 425 450H329V490Z" fill="#9C31CE"/>
<circle cx="615" cy="590" r="45" fill="black"/>
</svg>
